<svg xmlns="http://www.w3.org/2000/svg" viewBox="0 0 116 116.00049"><path d="M51.73486,22.76514H64.26465a1.5,1.5,0,0,0,0-3H51.73486a1.5,1.5,0,0,0,0,3Z"/><path d="M75.65576,32.86426H40.34424a1.5,1.5,0,0,0,0,3H75.65576a1.5,1.5,0,0,0,0-3Z"/><path d="M40.34424,42.69873h7.97363a1.5,1.5,0,0,0,0-3H40.34424a1.5,1.5,0,0,0,0,3Z"/><path d="M75.65576,39.69873H72.23828a1.5,1.5,0,0,0,0,3h3.41748a1.5,1.5,0,0,0,0-3Z"/><path d="M40.34424,48.86865H55.15234a1.5,1.5,0,0,0,0-3H40.34424a1.5,1.5,0,0,0,0,3Z"/><path d="M75.65576,45.86865H71.09912a1.5,1.5,0,0,0,0,3h4.55664a1.5,1.5,0,0,0,0-3Z"/><path d="M40.34424,55.03857h10.252a1.5,1.5,0,0,0,0-3h-10.252a1.5,1.5,0,0,0,0,3Z"/><path d="M75.65576,52.03857H71.09912a1.5,1.5,0,0,0,0,3h4.55664a1.5,1.5,0,0,0,0-3Z"/><path d="M40.34424,61.2085H52.874a1.5,1.5,0,0,0,0-3H40.34424a1.5,1.5,0,0,0,0,3Z"/><path d="M75.65576,58.2085H71.09912a1.5,1.5,0,0,0,0,3h4.55664a1.5,1.5,0,0,0,0-3Z"/><path d="M40.34424,67.37842H56.2915a1.5,1.5,0,0,0,0-3H40.34424a1.5,1.5,0,0,0,0,3Z"/><path d="M75.65576,64.37842H69.96a1.5,1.5,0,0,0,0,3h5.6958a1.5,1.5,0,0,0,0-3Z"/><path d="M40.34424,73.54834H52.874a1.5,1.5,0,0,0,0-3H40.34424a1.5,1.5,0,0,0,0,3Z"/><path d="M75.65576,70.54834H69.96a1.5,1.5,0,0,0,0,3h5.6958a1.5,1.5,0,0,0,0-3Z"/><path d="M40.34424,79.71826H49.457a1.5,1.5,0,0,0,0-3H40.34424a1.5,1.5,0,0,0,0,3Z"/><path d="M75.65576,76.71826H69.96a1.5,1.5,0,0,0,0,3h5.6958a1.5,1.5,0,0,0,0-3Z"/><path d="M60.84766,88.6792H40.34424a1.5,1.5,0,0,0,0,3H60.84766a1.5,1.5,0,0,0,0-3Z"/><path d="M75.65576,88.6792H66.543a1.5,1.5,0,0,0,0,3h9.11279a1.5,1.5,0,0,0,0-3Z"/><path d="M77.36426,13.5H38.63574a6.63318,6.63318,0,0,0-6.626,6.626v80.87451a1.50007,1.50007,0,0,0,1.5,1.5,4.68978,4.68978,0,0,0,3.46875-1.541c.58789-.54785.82178-.7373,1.42383-.7373.603,0,.8374.18945,1.42578.7373a4.67725,4.67725,0,0,0,6.93994,0c.58838-.54785.82275-.7373,1.42627-.7373s.83789.18945,1.42676.7373a4.67835,4.67835,0,0,0,6.94092,0c.58887-.54785.82275-.7373,1.42676-.7373.603,0,.8374.18945,1.42578.7373a4.6778,4.6778,0,0,0,6.94043,0c.58838-.54785.82275-.7373,1.42627-.7373.60449,0,.83936.18945,1.42871.7373a4.68374,4.68374,0,0,0,6.94482.001c.59033-.54883.8252-.73828,1.43115-.73828s.84082.18945,1.43115.73828a4.70224,4.70224,0,0,0,3.47314,1.54,1.50039,1.50039,0,0,0,1.5-1.5V20.126A6.63318,6.63318,0,0,0,77.36426,13.5Zm-38.72852,3H77.36426a3.6299,3.6299,0,0,1,3.626,3.626v5.90381H35.00977V20.126A3.6299,3.6299,0,0,1,38.63574,16.5Zm38.9502,80.72217a4.70224,4.70224,0,0,0-3.47314,1.54c-.59033.54883-.8252.73828-1.43115.73828-.60449,0-.83936-.18945-1.42871-.7373a4.67945,4.67945,0,0,0-6.94189,0c-.58838.54785-.82275.7373-1.42627.7373s-.83789-.18945-1.42627-.7373a4.6778,4.6778,0,0,0-6.94043,0c-.58838.54785-.82275.7373-1.42627.7373s-.83789-.18945-1.42676-.7373a4.67835,4.67835,0,0,0-6.94092,0c-.58887.54785-.82275.7373-1.42676.7373-.603,0-.83691-.18945-1.42529-.7373a4.69131,4.69131,0,0,0-3.46973-1.541,4.61563,4.61563,0,0,0-3.39258,1.4707V29.02979H80.99023V98.69873A4.63228,4.63228,0,0,0,77.58594,97.22217Z"/><path d="M44.89941,22.76172a1.50014,1.50014,0,0,0,1.06006-.43994,1.48239,1.48239,0,0,0,.43994-1.06006,1.51653,1.51653,0,0,0-.43994-1.06006,1.54764,1.54764,0,0,0-2.12012,0,1.51653,1.51653,0,0,0-.43994,1.06006,1.50014,1.50014,0,0,0,.43994,1.06006A1.51653,1.51653,0,0,0,44.89941,22.76172Z"/><path d="M95.5,0h-75A20.52325,20.52325,0,0,0,0,20.5V95.50049a20.52325,20.52325,0,0,0,20.5,20.5h75a20.52325,20.52325,0,0,0,20.5-20.5V20.5A20.52325,20.52325,0,0,0,95.5,0ZM113,95.50049a17.52,17.52,0,0,1-17.5,17.5h-75a17.52,17.52,0,0,1-17.5-17.5V20.5A17.52,17.52,0,0,1,20.5,3h75A17.52,17.52,0,0,1,113,20.5Z"/></svg>