<svg xmlns="http://www.w3.org/2000/svg" xmlns:xlink="http://www.w3.org/1999/xlink" version="1.2" baseProfile="tiny" x="0px" y="0px" viewBox="0 0 160.3 57.1" overflow="scroll" xml:space="preserve">
<g>
	<g>
		<path d="M46.5,39.7V16.9h12c4.3,0,6.6,2.8,6.6,5.8c0,2.9-1.8,4.8-3.9,5.2c2.4,0.4,4.4,2.7,4.4,5.6    c0,3.4-2.3,6.1-6.6,6.1H46.5z M60.1,23.6c0-1.4-1-2.5-2.7-2.5h-6.1v5h6.1C59,26.1,60.1,25,60.1,23.6z M60.5,32.9    c0-1.4-1-2.7-2.9-2.7h-6.3v5.3h6.3C59.4,35.5,60.5,34.5,60.5,32.9z"/>
		<path d="M68,31.5c0-4.8,3.5-8.6,8.5-8.6c4.9,0,8.3,3.7,8.3,9.1v1H72.5c0.3,2.1,1.9,3.8,4.7,3.8    c1.4,0,3.3-0.6,4.4-1.6l1.9,2.8c-1.6,1.5-4.2,2.3-6.8,2.3C71.7,40.1,68,36.7,68,31.5z M76.5,26.3c-2.7,0-3.9,2-4.1,3.7h8.1    C80.5,28.3,79.4,26.3,76.5,26.3z"/>
		<path d="M86.8,31.5c0-4.8,3.5-8.6,8.5-8.6c4.9,0,8.3,3.7,8.3,9.1v1H91.4c0.3,2.1,1.9,3.8,4.7,3.8    c1.4,0,3.3-0.6,4.4-1.6l1.9,2.8c-1.6,1.5-4.2,2.3-6.8,2.3C90.6,40.1,86.8,36.7,86.8,31.5z M95.4,26.3c-2.7,0-3.9,2-4.1,3.7h8.1    C99.3,28.3,98.3,26.3,95.4,26.3z"/>
		<path d="M106.8,39.7V16.9h4.3v22.8H106.8z"/>
		<path d="M135.9,39.7V29.3c0-1.5-0.7-2.6-2.5-2.6c-1.5,0-2.8,1-3.4,1.9v11.1h-4.4V29.3c0-1.5-0.7-2.6-2.5-2.6    c-1.5,0-2.8,1-3.4,1.9v11.1h-4.3V23.2h4.3v2.2c0.7-1,2.9-2.6,5.4-2.6c2.4,0,4,1.1,4.6,3c1-1.5,3.1-3,5.7-3c3,0,4.9,1.6,4.9,5v11.9    H135.9z"/>
		<path d="M143.5,31.5c0-4.8,3.5-8.6,8.5-8.6c4.9,0,8.3,3.7,8.3,9.1v1H148c0.3,2.1,1.9,3.8,4.7,3.8    c1.4,0,3.3-0.6,4.4-1.6l1.9,2.8c-1.6,1.5-4.2,2.3-6.8,2.3C147.3,40.1,143.5,36.7,143.5,31.5z M152,26.3c-2.7,0-3.9,2-4.1,3.7h8.1    C156,28.3,154.9,26.3,152,26.3z"/>
	</g>
	<g>
		<rect x="1.1" y="8" width="31.3" height="2.2"/>
		<path d="M20.7,6.2h-8c-0.6,0-1.1-0.5-1.1-1.1S12.1,4,12.7,4h8c0.6,0,1.1,0.5,1.1,1.1S21.3,6.2,20.7,6.2z"/>
		<path d="M28,14.5H5.5c-0.6,0-1.1-0.5-1.1-1.1s0.5-1.1,1.1-1.1H28c0.6,0,1.1,0.5,1.1,1.1S28.6,14.5,28,14.5z"/>
		<g>
			<path d="M10.5,18.9H5.5c-0.6,0-1.1-0.5-1.1-1.1s0.5-1.1,1.1-1.1h5.1c0.6,0,1.1,0.5,1.1,1.1S11.1,18.9,10.5,18.9z"/>
			<path d="M28,18.9h-2.2c-0.6,0-1.1-0.5-1.1-1.1s0.5-1.1,1.1-1.1H28c0.6,0,1.1,0.5,1.1,1.1S28.6,18.9,28,18.9z"/>
		</g>
		<g>
			<path d="M14.9,22.8H5.5c-0.6,0-1.1-0.5-1.1-1.1s0.5-1.1,1.1-1.1h9.4c0.6,0,1.1,0.5,1.1,1.1S15.5,22.8,14.9,22.8z"/>
			<path d="M28,22.8h-2.9c-0.6,0-1.1-0.5-1.1-1.1s0.5-1.1,1.1-1.1H28c0.6,0,1.1,0.5,1.1,1.1S28.6,22.8,28,22.8z"/>
		</g>
		<g>
			<path d="M12,26.8H5.5c-0.6,0-1.1-0.5-1.1-1.1s0.5-1.1,1.1-1.1H12c0.6,0,1.1,0.5,1.1,1.1S12.6,26.8,12,26.8z"/>
			<path d="M28,26.8h-2.9c-0.6,0-1.1-0.5-1.1-1.1s0.5-1.1,1.1-1.1H28c0.6,0,1.1,0.5,1.1,1.1S28.6,26.8,28,26.8z"/>
		</g>
		<g>
			<path d="M13.4,30.7h-8c-0.6,0-1.1-0.5-1.1-1.1s0.5-1.1,1.1-1.1h8c0.6,0,1.1,0.5,1.1,1.1S14,30.7,13.4,30.7z"/>
			<path d="M28,30.7h-2.9c-0.6,0-1.1-0.5-1.1-1.1s0.5-1.1,1.1-1.1H28c0.6,0,1.1,0.5,1.1,1.1S28.6,30.7,28,30.7z"/>
		</g>
		<g>
			<path d="M15.6,34.6H5.5c-0.6,0-1.1-0.5-1.1-1.1c0-0.6,0.5-1.1,1.1-1.1h10.2c0.6,0,1.1,0.5,1.1,1.1     C16.7,34.2,16.2,34.6,15.6,34.6z"/>
			<path d="M28,34.6h-3.6c-0.6,0-1.1-0.5-1.1-1.1c0-0.6,0.5-1.1,1.1-1.1H28c0.6,0,1.1,0.5,1.1,1.1     C29.1,34.2,28.6,34.6,28,34.6z"/>
		</g>
		<g>
			<path d="M13.4,38.6h-8c-0.6,0-1.1-0.5-1.1-1.1c0-0.6,0.5-1.1,1.1-1.1h8c0.6,0,1.1,0.5,1.1,1.1     C14.5,38.1,14,38.6,13.4,38.6z"/>
			<path d="M28,38.6h-3.6c-0.6,0-1.1-0.5-1.1-1.1c0-0.6,0.5-1.1,1.1-1.1H28c0.6,0,1.1,0.5,1.1,1.1     C29.1,38.1,28.6,38.6,28,38.6z"/>
		</g>
		<g>
			<path d="M11.3,42.5H5.5c-0.6,0-1.1-0.5-1.1-1.1c0-0.6,0.5-1.1,1.1-1.1h5.8c0.6,0,1.1,0.5,1.1,1.1     C12.4,42,11.9,42.5,11.3,42.5z"/>
			<path d="M28,42.5h-3.6c-0.6,0-1.1-0.5-1.1-1.1c0-0.6,0.5-1.1,1.1-1.1H28c0.6,0,1.1,0.5,1.1,1.1     C29.1,42,28.6,42.5,28,42.5z"/>
		</g>
		<path d="M18.5,50.2H5.5c-0.6,0-1.1-0.5-1.1-1.1c0-0.6,0.5-1.1,1.1-1.1h13.1c0.6,0,1.1,0.5,1.1,1.1    C19.6,49.7,19.1,50.2,18.5,50.2z"/>
		<path d="M28,50.2h-5.8c-0.6,0-1.1-0.5-1.1-1.1c0-0.6,0.5-1.1,1.1-1.1H28c0.6,0,1.1,0.5,1.1,1.1    C29.1,49.7,28.6,50.2,28,50.2z"/>
		<path d="M32.3,57.1c-1.2,0-1.9-0.6-2.3-1c-0.4-0.3-0.5-0.4-0.8-0.4c-0.3,0-0.5,0.1-0.8,0.4c-0.4,0.4-1.1,1-2.3,1    c-1.2,0-1.9-0.6-2.3-1c-0.4-0.3-0.5-0.4-0.8-0.4c-0.3,0-0.5,0.1-0.8,0.4c-0.4,0.4-1.1,1-2.3,1s-1.9-0.6-2.3-1    c-0.4-0.3-0.5-0.4-0.8-0.4c-0.3,0-0.5,0.1-0.8,0.4c-0.4,0.4-1.1,1-2.3,1c-1.2,0-1.9-0.6-2.3-1c-0.4-0.3-0.5-0.4-0.8-0.4    S10,55.7,9.6,56c-0.4,0.4-1.1,1-2.3,1S5.5,56.4,5,56c-0.4-0.3-0.5-0.4-0.8-0.4S3.8,55.7,3.4,56c-0.4,0.4-1.1,1-2.3,1    C0.5,57.1,0,56.6,0,56V4.4C0,2,2,0,4.4,0h24.7c2.4,0,4.4,2,4.4,4.4V56C33.4,56.6,32.9,57.1,32.3,57.1z M23,53.4    c1.2,0,1.9,0.6,2.3,1c0.4,0.3,0.5,0.4,0.8,0.4c0.3,0,0.5-0.1,0.8-0.4c0.4-0.4,1.1-1,2.3-1c1,0,1.6,0.4,2,0.8V4.4    c0-1.2-1-2.2-2.2-2.2H4.4c-1.2,0-2.2,1-2.2,2.2v49.8c0.4-0.4,1.1-0.8,2-0.8c1.2,0,1.9,0.6,2.3,1c0.4,0.3,0.5,0.4,0.8,0.4    c0.3,0,0.5-0.1,0.8-0.4c0.4-0.4,1.1-1,2.3-1c1.2,0,1.9,0.6,2.3,1c0.4,0.3,0.5,0.4,0.8,0.4s0.5-0.1,0.8-0.4c0.4-0.4,1.1-1,2.3-1    s1.9,0.6,2.3,1c0.4,0.3,0.5,0.4,0.8,0.4c0.3,0,0.5-0.1,0.8-0.4C21.1,54,21.7,53.4,23,53.4z"/>
		<path d="M8.4,6.2c-0.3,0-0.6-0.1-0.8-0.3C7.5,5.8,7.5,5.8,7.5,5.7c0-0.1-0.1-0.1-0.1-0.2c0-0.1-0.1-0.1-0.1-0.2    c0-0.1,0-0.1,0-0.2c0-0.1,0-0.1,0-0.2c0-0.1,0-0.1,0.1-0.2c0-0.1,0.1-0.1,0.1-0.2c0-0.1,0.1-0.1,0.1-0.2c0.4-0.4,1.1-0.4,1.5,0    c0.1,0.1,0.1,0.1,0.1,0.2c0,0.1,0.1,0.1,0.1,0.2c0,0.1,0.1,0.1,0.1,0.2c0,0.1,0,0.1,0,0.2c0,0.1,0,0.1,0,0.2c0,0.1,0,0.1-0.1,0.2    c0,0.1-0.1,0.1-0.1,0.2c0,0.1-0.1,0.1-0.1,0.2C8.9,6.1,8.6,6.2,8.4,6.2z"/>
	</g>
</g>
</svg>