<svg xmlns="http://www.w3.org/2000/svg" viewBox="0 0 116 116.00049"><path d="M105.5,19.5h-95A10.51211,10.51211,0,0,0,0,30V86.00049a10.5118,10.5118,0,0,0,10.5,10.5h95a10.51148,10.51148,0,0,0,10.5-10.5V30A10.5118,10.5118,0,0,0,105.5,19.5Zm-95,3h95A7.5082,7.5082,0,0,1,113,30v5.5H3V30A7.5082,7.5082,0,0,1,10.5,22.5ZM113,51.5H3v-13H113Zm-7.5,42.00049h-95a7.5082,7.5082,0,0,1-7.5-7.5V54.5H113V86.00049A7.5082,7.5082,0,0,1,105.5,93.50049Z"/><path d="M105.01172,70.50049H84.30859a1.50039,1.50039,0,0,0-1.5,1.5v12a1.50039,1.50039,0,0,0,1.5,1.5h20.70313a1.50039,1.50039,0,0,0,1.5-1.5v-12A1.50039,1.50039,0,0,0,105.01172,70.50049Zm-1.5,12H85.80859v-9h17.70313Z"/></svg>