<svg id="Слой_1" data-name="Слой 1" xmlns="http://www.w3.org/2000/svg" viewBox="0 0 116 116.00049"><title>icon-phone</title><path d="M79.5,0h-43A10.5118,10.5118,0,0,0,26,10.5v95.00049a10.51148,10.51148,0,0,0,10.5,10.5h43a10.51148,10.51148,0,0,0,10.5-10.5V10.5A10.5118,10.5118,0,0,0,79.5,0ZM29,13H87V95.00049H29ZM36.5,3h43a7.50317,7.50317,0,0,1,7.47461,7H29.02539A7.50317,7.50317,0,0,1,36.5,3Zm43,110.00049h-43a7.5082,7.5082,0,0,1-7.5-7.5v-7.5H87v7.5A7.5082,7.5082,0,0,1,79.5,113.00049Z"/><path d="M68.5,101.00049h-21a1.50039,1.50039,0,0,0-1.5,1.5v6a1.50039,1.50039,0,0,0,1.5,1.5h21a1.50039,1.50039,0,0,0,1.5-1.5v-6A1.50039,1.50039,0,0,0,68.5,101.00049Zm-1.5,6H49v-3H67Z"/></svg>