<svg xmlns="http://www.w3.org/2000/svg" viewBox="0 0 752.52929 894.15236"><title>beelme-ilustration-2</title><g id="shapes"><path d="M346.97086,539.50354c2.99011-2.4986,8.63782-7.215,11.69513-9.76642,4.81061-4.01465,9.7821-7.84259,14.449-12.02344,4.50464-4.03552,7.52618-7.01263,13.05023-10.65576a28.42538,28.42538,0,0,1,6.7749-3.52985,26.03886,26.03886,0,0,1,12.49237-.98q15.59775-.79385,31.19543-1.58777a7.22242,7.22242,0,0,1,4.99469.47534,4.68779,4.68779,0,0,1,2.3877,2.23987c.42743,1.03845.356,2.39191-.93506,4.81665a21.92974,21.92974,0,0,1-5.49042,6.61194c-5.35846,4.36182-10.3147,9.19635-15.538,13.71918-1.03217.89374-2.8974,2.51288-5.49475,4.6908-1.99829,1.6756-3.679,3.05231-4.86859,4.01874a6.89741,6.89741,0,0,0-7.61074-10.9198,96.62778,96.62778,0,0,0-11.125,2.5625c-4.21806,1.24286-7.43467,2.51624-12.57743,3.126a45.65081,45.65081,0,0,1-4.61.31152,33.89142,33.89142,0,0,0-9.68752.25c-1.54985.26984-3.38957.70648-10.43748,3.3125C352.02109,537.5119,349.04611,538.676,346.97086,539.50354Z" style="fill:#3b41c1"/></g><g id="lines"><path d="M234.01845.5A23.61093,23.61093,0,0,1,253.869,18.17455" style="fill:none;stroke:#333;stroke-linecap:round;stroke-linejoin:round"/><path d="M250.70252,10.9147c11.98525,2.10053,22.95177,11.968,26.752,23.52724s2.1634,24.4317-2.63555,35.61332c-1.35253,3.15142-3.0595,6.329-5.89639,8.25584" style="fill:none;stroke:#333;stroke-linecap:round;stroke-linejoin:round"/><path d="M279.43729,51.42522c.20711-3.27912.53934-5.08494,2.14451-6.99841a8.97224,8.97224,0,0,1,6.54883-3.159" style="fill:none;stroke:#333;stroke-linecap:round;stroke-linejoin:round"/><path d="M234.87671,3.23c2.90633,1.6877,4.04217,5.50713,3.4387,8.81332s-2.61,6.178-4.78323,8.74161-4.58518,4.96717-6.26445,7.87838-2.55526,6.51181-1.37336,9.658" style="fill:none;stroke:#333;stroke-linecap:round;stroke-linejoin:round"/><path d="M235.243,55.07061a10.33188,10.33188,0,0,1-4.392-2.57781,12.59488,12.59488,0,0,1-3.58445-4.77032,6.15063,6.15063,0,0,1,.5466-5.75177" style="fill:none;stroke:#333;stroke-linecap:round;stroke-linejoin:round"/><path d="M249.10914,57.49747c-3.07754-.81821-4.87574-4.29055-4.69385-7.4698s1.90609-6.06189,3.858-8.578,4.19526-4.83926,5.71361-7.63842,2.22873-6.27359.89771-9.16652l.10835.44811" style="fill:none;stroke:#333;stroke-linecap:round;stroke-linejoin:round"/><path d="M258.11954,18.633a24.05934,24.05934,0,0,1,13.65571,23.72093" style="fill:none;stroke:#333;stroke-linecap:round;stroke-linejoin:round"/><path d="M270.58568,46.6098a31.19772,31.19772,0,0,1-8.99077,19.83807" style="fill:none;stroke:#333;stroke-linecap:round;stroke-linejoin:round"/><path d="M265.01632,71.61923a26.92674,26.92674,0,0,0,7.56-13.86786" style="fill:none;stroke:#333;stroke-linecap:round;stroke-linejoin:round"/><path d="M254.66879,60.558a12.054,12.054,0,0,1,2.27937-18.10045" style="fill:none;stroke:#333;stroke-linecap:round;stroke-linejoin:round"/><path d="M261.33046,24.19059c-2.18849.53852-3.51954,2.92295-3.56723,5.17622a14.46469,14.46469,0,0,0,1.87647,6.42767,18.45081,18.45081,0,0,1,2.20958,6.34633,8.87811,8.87811,0,0,1-6.52217,9.04006" style="fill:none;stroke:#333;stroke-linecap:round;stroke-linejoin:round"/><path d="M257.66292,62.38923l-.53737.56378a25.212,25.212,0,0,0,7.97891-11.72486" style="fill:none;stroke:#333;stroke-linecap:round;stroke-linejoin:round"/><path d="M241.31983,6.65483a27.84383,27.84383,0,0,1,7.57369,11.51323,20.181,20.181,0,0,1,.996,10.11036,13.1027,13.1027,0,0,1-5.266,8.50531" style="fill:none;stroke:#333;stroke-linecap:round;stroke-linejoin:round"/><path d="M240.74969,40.27518a12.869,12.869,0,0,0,.768,15.05735" style="fill:none;stroke:#333;stroke-linecap:round;stroke-linejoin:round"/><path d="M241.49947,14.8017a12.97957,12.97957,0,0,1,.67446,10.73823,26.51954,26.51954,0,0,1-4.03136,6.35925,23.364,23.364,0,0,0-3.90372,6.42971,8.2265,8.2265,0,0,0,.60452,7.25808" style="fill:none;stroke:#333;stroke-linecap:round;stroke-linejoin:round"/><path d="M241.39129,14.56373c.85927,3.09228-.5474,6.404-2.55362,8.90913s-4.59717,4.48266-6.69179,6.91436-3.72341,5.58562-3.20062,8.7522" style="fill:none;stroke:#333;stroke-linecap:round;stroke-linejoin:round"/><path d="M236.4436,10.99622a5.11425,5.11425,0,0,1-2.22622,3.53067,12.93535,12.93535,0,0,1-3.9201,1.72667c-3.76867,1.13068-7.64606,1.87944-11.39374,3.07785a25.90354,25.90354,0,0,0-10.25816,5.6257,13.35791,13.35791,0,0,0-4.35746,10.54527" style="fill:none;stroke:#333;stroke-linecap:round;stroke-linejoin:round"/><path d="M204.86084,39.21646a4.19472,4.19472,0,0,0,1.35954,3.0709,15.46044,15.46044,0,0,0,2.80006,2.0173,14.93331,14.93331,0,0,1,3.6247,2.97464,6.56332,6.56332,0,0,1,1.6364,4.30564,4.2501,4.2501,0,0,1-2.392,3.7646" style="fill:none;stroke:#333;stroke-linecap:round;stroke-linejoin:round"/><path d="M228.38586,20.47583a18.35953,18.35953,0,0,0-10.245,15.30447,18.35953,18.35953,0,0,0,8.59878,16.28641" style="fill:none;stroke:#333;stroke-linecap:round;stroke-linejoin:round"/><path d="M219.78027,23.67889a13.97936,13.97936,0,0,0-9.82039,15.29851,7.12085,7.12085,0,0,1,3.80985-4.21986,6.9708,6.9708,0,0,0,.43834,5.7785,20.64939,20.64939,0,0,0,3.637,4.72366" style="fill:none;stroke:#333;stroke-linecap:round;stroke-linejoin:round"/><path d="M220.13288,13.65229c-5.02064.02571-9.80911,2.26614-13.85673,5.23669a25.43742,25.43742,0,0,0-7.547,8.21826,14.78136,14.78136,0,0,0-1.48645,10.873,16.18566,16.18566,0,0,0,5.05037,7.48961,48.27873,48.27873,0,0,0,7.55667,5.14668" style="fill:none;stroke:#333;stroke-linecap:round;stroke-linejoin:round"/><path d="M223.35631,11.9338a4.38769,4.38769,0,0,0,3.40647-2.87588,4.38769,4.38769,0,0,0-.98195-4.34862,6.82106,6.82106,0,0,1,4.10168,9.3361" style="fill:none;stroke:#333;stroke-linecap:round;stroke-linejoin:round"/><path d="M203.25247,16.33437a3.88508,3.88508,0,0,0,2.4732-1.70584,7.91275,7.91275,0,0,0,1.87276-5.07681,4.493,4.493,0,0,0-3.04689-4.1694,7.16047,7.16047,0,0,0-1.15963-.17508" style="fill:none;stroke:#333;stroke-linecap:round;stroke-linejoin:round"/><path d="M121.75016,54.49364a4.50484,4.50484,0,0,0,4.75445-.77576,11.028,11.028,0,0,0,2.84238-4.17753c2.11768-4.70234,3.40633-9.79265,6.05547-14.21741s7.1693-8.24872,12.32437-8.10123c.30193-3.86833,4.09374-6.6529,7.89662-7.42314s7.728-.0804,11.60721.00486,8.11271-.61137,10.73856-3.46795" style="fill:none;stroke:#333;stroke-linecap:round;stroke-linejoin:round"/><path d="M180.92266,15.646a15.72077,15.72077,0,0,1,21.28286-2.12566" style="fill:none;stroke:#333;stroke-linecap:round;stroke-linejoin:round"/><path d="M163.11889,19.44313a3.537,3.537,0,0,0,3.65556-5.42256" style="fill:none;stroke:#333;stroke-linecap:round;stroke-linejoin:round"/><path d="M132.71376,53.43781c1.61582-7.357,5.44908-14.71739,12.119-18.2171,1.66412-.87317,3.53066-1.53462,4.73838-2.97446a28.6959,28.6959,0,0,0,1.992-3.46371C153.232,26.10829,156.3633,24.62308,159.487,24.2a32.38252,32.38252,0,0,1,9.40344.57059" style="fill:none;stroke:#333;stroke-linecap:round;stroke-linejoin:round"/><path d="M155.69365,33.47067a10.81239,10.81239,0,0,1,6.63946-3.78267,72.38373,72.38373,0,0,1,7.77235-.77008,38.56053,38.56053,0,0,0,14.59689-4.45969c3.473-1.88109,6.83333-4.54711,8.02136-8.31387.01377,6.14722-3.92225,11.81455-9.04517,15.21223s-11.29455,4.836-17.39069,5.6269c-5.16669.67028-10.43878.93246-15.39416,2.54123s-9.69767,4.84194-11.62075,9.684" style="fill:none;stroke:#333;stroke-linecap:round;stroke-linejoin:round"/><path d="M191.324,56.84821a24.65846,24.65846,0,0,1,4.46361-29.32938" style="fill:none;stroke:#333;stroke-linecap:round;stroke-linejoin:round"/><path d="M193.25462,24.23788a6.62811,6.62811,0,0,1,6.50439-6.445" style="fill:none;stroke:#333;stroke-linecap:round;stroke-linejoin:round"/><path d="M194.01413,35.24561a13.57427,13.57427,0,0,0,9.65975,19.169" style="fill:none;stroke:#333;stroke-linecap:round;stroke-linejoin:round"/><path d="M184.97672,45.60325a16.2674,16.2674,0,0,1-13.36436,17.75407" style="fill:none;stroke:#333;stroke-linecap:round;stroke-linejoin:round"/><path d="M178.89534,63.86213a28.87254,28.87254,0,0,0-7.4206,5.26074,10.32466,10.32466,0,0,0-2.99832,8.30525" style="fill:none;stroke:#333;stroke-linecap:round;stroke-linejoin:round"/><path d="M181.10522,66.179a11.96273,11.96273,0,0,0-6.28281,8.67165,45.973,45.973,0,0,1,7.85315-4.03505c-.305,2.38341-2.07073,4.32113-3.98037,5.77953s-4.06322,2.62814-5.71493,4.37327a11.48248,11.48248,0,0,0-3.04461,8.89256" style="fill:none;stroke:#333;stroke-linecap:round;stroke-linejoin:round"/><path d="M182.63354,82.91789a9.92863,9.92863,0,0,0-8.79223,4.97585" style="fill:none;stroke:#333;stroke-linecap:round;stroke-linejoin:round"/><path d="M186.422,82.71817c-.98561,3.84788-4.29506,6.66385-7.76348,8.59973s-7.282,3.27513-10.50343,5.599-5.87041,6.01342-5.48644,9.96692" style="fill:none;stroke:#333;stroke-linecap:round;stroke-linejoin:round"/><path d="M177.74979,98.34272A26.43478,26.43478,0,0,0,165.35965,131.698" style="fill:none;stroke:#333;stroke-linecap:round;stroke-linejoin:round"/><path d="M168.14378,81.73761c-.46412,4.59928-3.41586,8.6683-7.11067,11.44628s-8.09618,4.43617-12.47863,5.90686a23.42549,23.42549,0,0,0-4.87948,2.03367,7.31766,7.31766,0,0,0-3.325,3.97216" style="fill:none;stroke:#333;stroke-linecap:round;stroke-linejoin:round"/><path d="M163.71491,132.61368l-14.424,6.57493A10.69035,10.69035,0,0,0,141.427,126.6927" style="fill:none;stroke:#333;stroke-linecap:round;stroke-linejoin:round"/><path d="M137.94386,128.24657a28.6042,28.6042,0,0,0-11.0861-10.00413c-1.478-.748-3.20952-1.37313-4.75764-.78366-1.70325.64853-2.5611,2.50848-3.23784,4.20072a51.13031,51.13031,0,0,0-3.7336,12.55046c-.53766,4.3442.04524,8.96743,2.45159,12.624" style="fill:none;stroke:#333;stroke-linecap:round;stroke-linejoin:round"/><path d="M119.10351,151.03793c1.53326,8.13717,7.57774,14.67693,14.07467,19.81058a12.43914,12.43914,0,0,0,3.1168,1.965,4.61971,4.61971,0,0,0,3.5975.02968,10.88546,10.88546,0,0,0,2.86-2.67853c.91094-.94922,2.27056-1.74638,3.49376-1.262" style="fill:none;stroke:#333;stroke-linecap:round;stroke-linejoin:round"/><path d="M122.18843,123.88877c4.20156.6342,7.83945,3.409,10.41872,6.78576s4.24611,7.34539,5.88537,11.26561" style="fill:none;stroke:#333;stroke-linecap:round;stroke-linejoin:round"/><path d="M141.32019,142.63507a9.10282,9.10282,0,0,0-1.7304,8.9389c.43529,1.21193,1.12742,2.31511,1.62086,3.50455a5.41481,5.41481,0,0,1,.36668,3.76056" style="fill:none;stroke:#333;stroke-linecap:round;stroke-linejoin:round"/><path d="M139.55491,161.86051a6.87339,6.87339,0,0,0-5.24685-6.1836c-1.85263-.40339-3.804-.00635-5.66515-.36837a7.08945,7.08945,0,0,1-3.49118-1.79287" style="fill:none;stroke:#333;stroke-linecap:round;stroke-linejoin:round"/><path d="M130.31648,160.94691a29.06313,29.06313,0,0,1-7.02732-31.52423" style="fill:none;stroke:#333;stroke-linecap:round;stroke-linejoin:round"/><path d="M130.67135,149.42411a5.13,5.13,0,0,0,1.71164-7.1846" style="fill:none;stroke:#333;stroke-linecap:round;stroke-linejoin:round"/><path d="M125.80507,149.04364c-.74871-2.51251-1.50491-5.14171-1.02536-7.71917a8.37381,8.37381,0,0,1,2.57421-4.6221" style="fill:none;stroke:#333;stroke-linecap:round;stroke-linejoin:round"/><path d="M160.92723,98.867a22.29312,22.29312,0,0,1-5.90165,6.18789,36.55534,36.55534,0,0,0-6.37813,5.74616,10.16458,10.16458,0,0,0-2.3889,7.99306" style="fill:none;stroke:#333;stroke-linecap:round;stroke-linejoin:round"/><path d="M136.57176,120.43567l4.07174-3.01518a1.31014,1.31014,0,0,1,.75266-.33778c.52011.006.81579.579,1.01666,1.05883a18.798,18.798,0,0,0,11.47967,10.5034" style="fill:none;stroke:#333;stroke-linecap:round;stroke-linejoin:round"/><path d="M154.53234,132.62879a8.90406,8.90406,0,0,1,5.73439-3.46422,22.55645,22.55645,0,0,1-1.389-22.68048" style="fill:none;stroke:#333;stroke-linecap:round;stroke-linejoin:round"/><path d="M153.83748,110.82282a10.4507,10.4507,0,0,0-1.95611,11.16695" style="fill:none;stroke:#333;stroke-linecap:round;stroke-linejoin:round"/><path d="M126.46211,118.27175c.77979-3.40232,4.21453-5.53346,7.57322-6.48378s6.94679-1.12167,10.14388-2.52254a14.28777,14.28777,0,0,0,7.22336-7.15885" style="fill:none;stroke:#333;stroke-linecap:round;stroke-linejoin:round"/><path d="M119.45241,55.83079a14.56793,14.56793,0,0,0-.06061,9.48482,20.72681,20.72681,0,0,0-15.64257,23.57012" style="fill:none;stroke:#333;stroke-linecap:round;stroke-linejoin:round"/><path d="M106.75586,103.81066a34.97652,34.97652,0,0,1,8.7582-30.06194" style="fill:none;stroke:#333;stroke-linecap:round;stroke-linejoin:round"/><path d="M109.66122,98.64153a8.01665,8.01665,0,0,0,2.3021-3.76686,26.15323,26.15323,0,0,1,.903,10.21741,11.85128,11.85128,0,0,1-5.239,8.50748" style="fill:none;stroke:#333;stroke-linecap:round;stroke-linejoin:round"/><path d="M113.59132,110.88432a19.58212,19.58212,0,0,1-7.812,25.4774" style="fill:none;stroke:#333;stroke-linecap:round;stroke-linejoin:round"/><path d="M105.53493,136.5809a6.73243,6.73243,0,0,0,6.96461,1.75091" style="fill:none;stroke:#333;stroke-linecap:round;stroke-linejoin:round"/><path d="M122.36629,159.99123a9.76777,9.76777,0,0,0-.05453,6.74491c.66643,2.19862,1.75433,4.24385,2.5688,6.392a27.46155,27.46155,0,0,1-1.3942,22.28457,7.9035,7.9035,0,0,0,4.137-1.68925" style="fill:none;stroke:#333;stroke-linecap:round;stroke-linejoin:round"/><path d="M128.851,190.75266a27.761,27.761,0,0,1-3.17885,9.11506c1.635-.07944,6.08816-1.0305,7.00273-2.91" style="fill:none;stroke:#333;stroke-linecap:round;stroke-linejoin:round"/><path d="M129.94678,168.58326c3.40184,9.58655,4.03631,20.00513,2.926,30.11658s-3.91621,19.96514-7.24109,29.57865" style="fill:none;stroke:#333;stroke-linecap:round;stroke-linejoin:round"/><path d="M126.37856,165.24207a21.66778,21.66778,0,0,1,2.99593,12.74511" style="fill:none;stroke:#333;stroke-linecap:round;stroke-linejoin:round"/><path d="M117.52618,116.32509c.98105-6.73891,5.57937-12.56583,11.26009-16.32148s12.37337-5.67577,19.05252-7.004a44.57985,44.57985,0,0,0,9.45953-2.4844c2.98808-1.32214,5.729-3.58077,6.81608-6.66214" style="fill:none;stroke:#333;stroke-linecap:round;stroke-linejoin:round"/><path d="M166.707,70.96656a26.23881,26.23881,0,0,1-24.24989,16.32906,19.74474,19.74474,0,0,0-5.52667.3348" style="fill:none;stroke:#333;stroke-linecap:round;stroke-linejoin:round"/><path d="M127.0519,95.71247a24.67682,24.67682,0,0,1,12.93482-19.14036c4.60814-2.39629,9.84555-3.24822,14.7229-5.03389s9.74072-4.92748,11.37073-9.859c-4.62167,3.33127-10.45627,4.35854-16.049,5.44409-5.76935,1.11982-11.57419,2.41743-16.84725,5.01248s-10.0315,6.62937-12.45074,11.98537a26.181,26.181,0,0,0-2.08445,9.75637" style="fill:none;stroke:#333;stroke-linecap:round;stroke-linejoin:round"/><path d="M125.377,89.14911c-1.84692.16372-3.18584,1.92569-3.66167,3.71775a41.87916,41.87916,0,0,0-.566,5.52487,13.7246,13.7246,0,0,1-6.446,9.88075" style="fill:none;stroke:#333;stroke-linecap:round;stroke-linejoin:round"/><path d="M109.781,89.83375A27.21916,27.21916,0,0,0,121.7847,67.99069" style="fill:none;stroke:#333;stroke-linecap:round;stroke-linejoin:round"/><path d="M123.91347,64.73787a9.04815,9.04815,0,0,1,5.8883-8.27677,3.19009,3.19009,0,0,1,2.15182-.139,1.43764,1.43764,0,0,1,.93325,1.74069" style="fill:none;stroke:#333;stroke-linecap:round;stroke-linejoin:round"/><path d="M125.69493,66.827a5.45647,5.45647,0,0,0,5.72056,1.05106,12.04737,12.04737,0,0,0,4.83625-3.694,48.19527,48.19527,0,0,1,4.08055-4.59987,13.98228,13.98228,0,0,1,13.12036-2.87795" style="fill:none;stroke:#333;stroke-linecap:round;stroke-linejoin:round"/><path d="M185.52831,36.40035c-2.31269,6.00663-5.42819,11.88871-10.28467,16.11278s-11.72072,6.54626-17.89388,4.72412" style="fill:none;stroke:#333;stroke-linecap:round;stroke-linejoin:round"/><path d="M136.71006,56.76139a13.3401,13.3401,0,0,1,9.13338-6.38455c3.39824-.59173,6.86948.16831,10.31746.26607a27.41963,27.41963,0,0,0,24.21183-13.784,10.32956,10.32956,0,0,1-4.18689,3.31748c-6.9365,3.4468-14.94286,3.72964-22.59581,4.92454-2.0444.31921-4.273.82334-5.51507,2.47822" style="fill:none;stroke:#333;stroke-linecap:round;stroke-linejoin:round"/><path d="M137.39337,105.55545a11.92189,11.92189,0,0,0-12.93992,3.858,3.27905,3.27905,0,0,0-.84483,3.044" style="fill:none;stroke:#333;stroke-linecap:round;stroke-linejoin:round"/><path d="M270.54233,80.09449a42.91834,42.91834,0,0,1,6.99038,23.78573c-.02738,2.9538-.23862,6.27623,1.7607,8.45072" style="fill:none;stroke:#333;stroke-linecap:round;stroke-linejoin:round"/><path d="M262.2173,119.69575c.5421,1.58318.49318,3.83675,1.03528,5.41993" style="fill:none;stroke:#333;stroke-linecap:round;stroke-linejoin:round"/><path d="M262.2173,119.69575a14.87077,14.87077,0,0,1,19.11839-1.76171" style="fill:none;stroke:#333;stroke-linecap:round;stroke-linejoin:round"/><path d="M263.28586,125.18831c1.904.96976,4.21623.58775,6.22977-.12733s3.94365-1.745,6.05928-2.04464,4.571.35272,5.59184,2.22984a6.61079,6.61079,0,0,0,.45082-5.00214" style="fill:none;stroke:#333;stroke-linecap:round;stroke-linejoin:round"/><path d="M281.18747,128.25614c-1.9664,4.78843-3.969,9.77918-3.67393,14.94723.2981,5.22154,2.92135,10.063,3.4975,15.26121.86157,7.77338-2.8808,15.19907-5.54333,22.5529-2.25412,6.22582-3.78936,12.72543-6.58235,18.72885-1.7288,3.716-3.92287,7.20359-5.6,10.94317s-2.83758,7.84966-2.32283,11.91565" style="fill:none;stroke:#333;stroke-linecap:round;stroke-linejoin:round"/><path d="M148.77792,173.32788c1.82019,5.53757,2.965,11.27,4.4215,16.91418a60.95419,60.95419,0,0,0,6.2503,16.266c2.99693,4.99962,7.29927,9.37456,12.68868,11.59536" style="fill:none;stroke:#333;stroke-linecap:round;stroke-linejoin:round"/><path d="M175.09286,219.66611a208.20773,208.20773,0,0,0,47.05726,22.01253,61.8964,61.8964,0,0,0,15.77043,3.2287,27.14718,27.14718,0,0,0,15.49108-3.59637c4.57094-2.84037,7.02861-7.69307,7.44689-13.05835" style="fill:none;stroke:#333;stroke-linecap:round;stroke-linejoin:round"/><path d="M196.693,114.79033c7.53353.41844,14.278-4.67406,21.74482-5.75834a27.95315,27.95315,0,0,1,14.26318,2.11987,83.44847,83.44847,0,0,1,12.8031,6.95062,15.348,15.348,0,0,1-5.15677,7.37089" style="fill:none;stroke:#333;stroke-linecap:round;stroke-linejoin:round"/><path d="M198.65179,116.34479a18.95616,18.95616,0,0,0,12.84264,3.36673c3.302-.34885,6.44124-1.56274,9.65935-2.38027s6.712-1.22109,9.79237.01813c3.19427,1.285,5.49538,4.17322,7.01661,7.262" style="fill:none;stroke:#333;stroke-linecap:round;stroke-linejoin:round"/><path d="M257.37932,127.758a7.22947,7.22947,0,0,0-2.05029,6.27283,21.36124,21.36124,0,0,0,2.202,6.46957L265.213,157.0133" style="fill:none;stroke:#333;stroke-linecap:round;stroke-linejoin:round"/><path d="M266.2209,160.322a11.79937,11.79937,0,0,1-5.36237,15.98581" style="fill:none;stroke:#333;stroke-linecap:round;stroke-linejoin:round"/><path d="M245.625,171.631a14.14638,14.14638,0,0,1,5.23129.15209,4.8083,4.8083,0,0,1,3.56565,3.49473" style="fill:none;stroke:#333;stroke-linecap:round;stroke-linejoin:round"/><path d="M232.37615,160.85745a7.37164,7.37164,0,0,0,3.75827,10.703l-.24777.3009" style="fill:none;stroke:#333;stroke-linecap:round;stroke-linejoin:round"/><path d="M254.97116,162.88834a12.87545,12.87545,0,0,0,2.10176,2.04968,4.32708,4.32708,0,0,0,2.74246.89468,2.63309,2.63309,0,0,0,2.29846-1.5713" style="fill:none;stroke:#333;stroke-linecap:round;stroke-linejoin:round"/><path d="M266.80772,169.7722a11.6941,11.6941,0,0,0,2.67049,8.28173l.30607.25078" style="fill:none;stroke:#333;stroke-linecap:round;stroke-linejoin:round"/><path d="M228.22263,164.97313c-1.9924,5.40734-5.79559,9.56315-10.15466,11.09617" style="fill:none;stroke:#333;stroke-linecap:round;stroke-linejoin:round"/><path d="M210.88791,181.42a13.3022,13.3022,0,0,0-4.25946,6.43611,18.17924,18.17924,0,0,0-.55391,8.56325" style="fill:none;stroke:#333;stroke-linecap:round;stroke-linejoin:round"/><path d="M249.599,198.27616a33.95593,33.95593,0,0,0,9.29248.23655,11.44944,11.44944,0,0,0,7.84342-4.53919" style="fill:none;stroke:#333;stroke-linecap:round;stroke-linejoin:round"/><path d="M236.66148,202.6484a25.488,25.488,0,0,0,23.0077,1.99746" style="fill:none;stroke:#333;stroke-linecap:round;stroke-linejoin:round"/><path d="M232.91981,188.91435a8.6087,8.6087,0,0,1,7.34031.23276" style="fill:none;stroke:#333;stroke-linecap:round;stroke-linejoin:round"/><path d="M219.72179,192.13734c3.75914,2.50215,8.58007,2.53334,13.09576,2.55226s9.3745.22554,12.96124,2.96911" style="fill:none;stroke:#333;stroke-linecap:round;stroke-linejoin:round"/><path d="M208.01252,131.39507a49.7774,49.7774,0,0,1,5.317-3.3714,16.636,16.636,0,0,1,5.96-1.92161,13.32277,13.32277,0,0,1,7.14869,1.32562,15.271,15.271,0,0,1,5.56037,4.71959" style="fill:none;stroke:#333;stroke-linecap:round;stroke-linejoin:round"/><path d="M209.31187,132.64062a11.85481,11.85481,0,0,0,4.6603,2.62907l1.05947.40017" style="fill:none;stroke:#333;stroke-linecap:round;stroke-linejoin:round"/><path d="M217.72959,136.38872a13.71954,13.71954,0,0,0,12.02155-2.07779" style="fill:none;stroke:#333;stroke-linecap:round;stroke-linejoin:round"/><path d="M225.39911,126.97107a4.78587,4.78587,0,0,1,.11662,4.91123,5.11605,5.11605,0,0,1-4.29015,2.74551,5.32069,5.32069,0,0,1-4.62363-2.53484,5.76935,5.76935,0,0,1-.272-5.30488" style="fill:none;stroke:#333;stroke-linecap:round;stroke-linejoin:round"/><path d="M217.40345,126.85274a2.90213,2.90213,0,0,1-.82279,5.07557" style="fill:none;stroke:#333;stroke-linecap:round;stroke-linejoin:round"/><path d="M220.21857,129.08263a1.59855,1.59855,0,0,0-.22154,1.51335,1.52964,1.52964,0,0,0,1.19049.94995,1.46666,1.46666,0,0,0,1.38654-.61384,1.40888,1.40888,0,0,0,.02437-1.50916" style="fill:none;stroke:#333;stroke-linecap:round;stroke-linejoin:round"/><path d="M233.65426,131.102a15.16574,15.16574,0,0,0-12.45927-7.3843" style="fill:none;stroke:#333;stroke-linecap:round;stroke-linejoin:round"/><path d="M215.16212,124.28278c-4.72494.596-8.05782,5.463-12.78358,6.0525" style="fill:none;stroke:#333;stroke-linecap:round;stroke-linejoin:round"/><path d="M263.651,130.89847a4.72061,4.72061,0,0,0-.431,5.113,4.93526,4.93526,0,0,0,4.52729,2.472,5.17144,5.17144,0,0,0,4.27338-2.93491,5.43257,5.43257,0,0,0-.41158-5.19261" style="fill:none;stroke:#333;stroke-linecap:round;stroke-linejoin:round"/><path d="M260.9367,137.317c2.112,1.47087,4.84453,1.644,7.41821,1.62979a15.75775,15.75775,0,0,0,4.46766-.49994,6.1925,6.1925,0,0,0,3.58148-2.57265" style="fill:none;stroke:#333;stroke-linecap:round;stroke-linejoin:round"/><path d="M256.22545,137.01507a19.04273,19.04273,0,0,1,5.86008-5.64149,13.38691,13.38691,0,0,1,7.83378-1.932,10.35045,10.35045,0,0,1,7.12295,3.59776" style="fill:none;stroke:#333;stroke-linecap:round;stroke-linejoin:round"/><path d="M256.779,133.33619a11.16467,11.16467,0,0,1,7.60513-5.105" style="fill:none;stroke:#333;stroke-linecap:round;stroke-linejoin:round"/><path d="M269.69772,127.7981a9.09023,9.09023,0,0,1,4.1265.87441" style="fill:none;stroke:#333;stroke-linecap:round;stroke-linejoin:round"/><path d="M266.92059,132.81167a1.7038,1.7038,0,0,0,.29706,1.83332,1.46392,1.46392,0,0,0,1.80224.2213,1.28533,1.28533,0,0,0,.35254-1.73295" style="fill:none;stroke:#333;stroke-linecap:round;stroke-linejoin:round"/><path d="M264.67377,130.42811a2.31542,2.31542,0,0,1,.79363,1.48748,2.98471,2.98471,0,0,1-.40089,2.26176,1.76819,1.76819,0,0,1-2.07561.65737" style="fill:none;stroke:#333;stroke-linecap:round;stroke-linejoin:round"/><path d="M259.74135,204.256a2.56748,2.56748,0,0,0-1.00515-2.07118" style="fill:none;stroke:#333;stroke-linecap:round;stroke-linejoin:round"/><path d="M235.87159,244.76045c-4.31886,2.03141-6.59731,6.92276-7.28485,11.64574s-.13612,9.54292-.55958,14.29685-2.07976,9.76936-6.00045,12.491" style="fill:none;stroke:#333;stroke-linecap:round;stroke-linejoin:round"/><path d="M134.33024,202.603a28.90015,28.90015,0,0,0,10.79824,20.89637" style="fill:none;stroke:#333;stroke-linecap:round;stroke-linejoin:round"/><path d="M128.33241,219.22057a11.70185,11.70185,0,0,0-4.58169.37263,3.98545,3.98545,0,0,0-2.79534,3.34351c-.069,2.1268,2.04668,3.58516,3.90668,4.61882l24.78268,13.77263" style="fill:none;stroke:#333;stroke-linecap:round;stroke-linejoin:round"/><path d="M118.69218,222.83226c-2.36238,2.372-3.12305,5.88218-3.47715,9.21115s-.4318,6.7784-1.81312,9.82788c-.93159,2.05663-2.46649,4.0078-2.353,6.26274.15729,3.12488,3.30393,5.11383,6.08024,6.55664l17.90672,9.30593" style="fill:none;stroke:#333;stroke-linecap:round;stroke-linejoin:round"/><path d="M138.54794,266.00127a379.20183,379.20183,0,0,1,62.50185,55.70548" style="fill:none;stroke:#333;stroke-linecap:round;stroke-linejoin:round"/><path d="M202.86467,320.11565a37.41257,37.41257,0,0,1,9.99451-25.47088c2.542-2.71384,5.70083-5.47622,5.83284-9.19232.14064-3.95926-3.22387-7.05233-6.30061-9.54817" style="fill:none;stroke:#333;stroke-linecap:round;stroke-linejoin:round"/><path d="M154.08939,242.60031c10.43471,3.80441,19.8832,9.84332,29.23563,15.83406l25.91274,16.5985" style="fill:none;stroke:#333;stroke-linecap:round;stroke-linejoin:round"/><path d="M123.25676,233.3626A24.58721,24.58721,0,0,0,134.85742,246.171" style="fill:none;stroke:#333;stroke-linecap:round;stroke-linejoin:round"/><path d="M197.04425,302.89515a4.31836,4.31836,0,1,0,3.85032,7.709" style="fill:none;stroke:#333;stroke-linecap:round;stroke-linejoin:round"/><path d="M222.10761,287.16987c-1.57132,6.36326-3.14839,12.76128-3.65961,19.29571s.08922,13.27143,2.72573,19.27217" style="fill:none;stroke:#333;stroke-linecap:round;stroke-linejoin:round"/><path d="M227.70862,273.89807l10.61975,14.61253a3.48148,3.48148,0,0,1,.82355,1.75331c.0686,1.16383-.98689,2.04307-1.919,2.74329a62.09874,62.09874,0,0,0-17.03772,19.62532" style="fill:none;stroke:#333;stroke-linecap:round;stroke-linejoin:round"/><path d="M222.97525,313.48656c2.98422-.05516,5.247,2.74905,6.29388,5.54417s1.41755,5.89348,3.0806,8.372c1.349,2.01042,3.4216,3.41295,5.01034,5.23983,3.65461,4.20242,4.38711,10.12436,4.96031,15.664a12.98539,12.98539,0,0,1,4.39044,6.8448,46.36658,46.36658,0,0,1,1.31529,8.15718,155.19933,155.19933,0,0,0,8.61607,36.64179" style="fill:none;stroke:#333;stroke-linecap:round;stroke-linejoin:round"/><path d="M258.86013,403.96208a114.33,114.33,0,0,1,18.68734,69.18439" style="fill:none;stroke:#333;stroke-linecap:round;stroke-linejoin:round"/><path d="M276.588,476.5472c3.63758,10.06266,3.84182,21.01379,3.50513,31.70845s-1.16779,21.47595.53781,32.03909" style="fill:none;stroke:#333;stroke-linecap:round;stroke-linejoin:round"/><path d="M222.54917,331.41143c4.18217,30.8922,21.96568,58.15158,30.86267,88.029a157.45147,157.45147,0,0,1,5.3937,63.59969" style="fill:none;stroke:#333;stroke-linecap:round;stroke-linejoin:round"/><path d="M259.06584,486.62758c5.06888,10.95193,5.56418,23.436,5.083,35.49451s-1.84667,24.19314-.1751,36.14489" style="fill:none;stroke:#333;stroke-linecap:round;stroke-linejoin:round"/><path d="M224.98536,333.34816A79.61639,79.61639,0,0,1,234.367,371.111" style="fill:none;stroke:#333;stroke-linecap:round;stroke-linejoin:round"/><path d="M180.281,355.56744c4.5656.13112,8.79524-2.567,11.88347-5.93222s5.31483-7.41527,8.02307-11.09322c3.46972-4.71208,8.10708-9.014,13.86319-10.06751-8.01464,12.76047-16.2224,26.04-18.19265,40.97927" style="fill:none;stroke:#333;stroke-linecap:round;stroke-linejoin:round"/><path d="M143.24059,297.535c4.1442,5.2685,9.76872,9.14922,14.49747,13.90005s8.73023,10.98849,8.196,17.67026c-.1884,2.35626-.90458,4.88987.21984,6.96909.79953,1.47846,2.35218,2.35255,3.67269,3.39244a14.99572,14.99572,0,0,1,5.626,11.8062" style="fill:none;stroke:#333;stroke-linecap:round;stroke-linejoin:round"/><path d="M113.73618,252.571c-2.54387,8.724-8.68715,16.0022-15.68075,21.80475S83.14182,284.73967,75.66731,289.908a164.61931,164.61931,0,0,0-30.57959,27.37262" style="fill:none;stroke:#333;stroke-linecap:round;stroke-linejoin:round"/><path d="M41.769,321.05414C33.62481,342.152,13.64955,357.66605,8.24248,379.6254c-2.42139,9.83382-1.6718,20.12769-2.23544,30.23953-.35721,6.40841-1.24675,12.84543-.48348,19.21823s3.47118,12.87251,8.78963,16.46547" style="fill:none;stroke:#333;stroke-linecap:round;stroke-linejoin:round"/><path d="M27.1231,345.71716a71.90622,71.90622,0,0,0-12.1915,39.0601" style="fill:none;stroke:#333;stroke-linecap:round;stroke-linejoin:round"/><path d="M12.45836,408.62132a5.62168,5.62168,0,0,0,4.2467-2.49133,19.08727,19.08727,0,0,0,2.19117-4.59157,60.319,60.319,0,0,1,12.7764-20.8289c5.74131-5.85829,13.21582-10.19826,21.33583-11.35911a110.78421,110.78421,0,0,0-37.75079,71.388" style="fill:none;stroke:#333;stroke-linecap:round;stroke-linejoin:round"/><path d="M14.18719,397.76732c4.54044-11.66537,9.18043-23.50977,16.83085-33.41772a65.87947,65.87947,0,0,1,24.2771-19.39473" style="fill:none;stroke:#333;stroke-linecap:round;stroke-linejoin:round"/><path d="M59.06862,346.61864q6.36326-3.40753,12.93473-6.4056c3.10941-1.41851,6.3563-2.79039,9.77375-2.83022,3.82-.04452,7.43859,1.57465,10.91348,3.16185,9.20231,4.20326,18.53314,8.4869,26.25509,15.02306" style="fill:none;stroke:#333;stroke-linecap:round;stroke-linejoin:round"/><path d="M123.1892,358.77422a103.38293,103.38293,0,0,1,44.05717,80.98946" style="fill:none;stroke:#333;stroke-linecap:round;stroke-linejoin:round"/><path d="M170.23908,439.54517A128.353,128.353,0,0,0,196.829,399.25936c1.24684,11.26884-3.93553,22.34933-10.75573,31.40616s-15.32673,16.72693-22.281,25.68123" style="fill:none;stroke:#333;stroke-linecap:round;stroke-linejoin:round"/><path d="M190.26966,435.00074a111.34334,111.34334,0,0,1-5.34452,11.32935,6.37817,6.37817,0,0,1,4.85628-1.61906c1.75756.05064,3.48579.47807,5.2419.56539a13.81379,13.81379,0,0,0,11.25618-5.049" style="fill:none;stroke:#333;stroke-linecap:round;stroke-linejoin:round"/><path d="M163.71892,463.99344a54.7929,54.7929,0,0,1,42.906-12.80526" style="fill:none;stroke:#333;stroke-linecap:round;stroke-linejoin:round"/><path d="M148.68485,373.092c3.51559-2.50464,8.19976-2.862,12.42631-1.98518s8.12785,2.85763,12.01653,4.73136,7.90249,3.68362,12.19086,4.17615" style="fill:none;stroke:#333;stroke-linecap:round;stroke-linejoin:round"/><path d="M82.0732,336.72682a288.18392,288.18392,0,0,0,22.097-29.59107" style="fill:none;stroke:#333;stroke-linecap:round;stroke-linejoin:round"/><path d="M106.15918,303.66311a217.12024,217.12024,0,0,0,26.1733-40.53487" style="fill:none;stroke:#333;stroke-linecap:round;stroke-linejoin:round"/><path d="M130.13841,276.948a175.2443,175.2443,0,0,1-23.87227,35.30054" style="fill:none;stroke:#333;stroke-linecap:round;stroke-linejoin:round"/><path d="M90.24473,333.7412q5.63173-8.36945,11.92333-16.26873" style="fill:none;stroke:#333;stroke-linecap:round;stroke-linejoin:round"/><path d="M76.44856,342.28534a148.1083,148.1083,0,0,1-7.34356,45.98c-1.51134,4.61388-3.27622,9.37432-2.64435,14.18813" style="fill:none;stroke:#333;stroke-linecap:round;stroke-linejoin:round"/><path d="M66.26229,407.58548c.61794,15.4626-4.49365,30.49776-9.05433,45.28539s-8.66673,30.33612-6.00423,45.5803" style="fill:none;stroke:#333;stroke-linecap:round;stroke-linejoin:round"/><path d="M60.40127,495.59276c-1.87869-10.66764-.99137-21.6756,1.26611-32.26955s5.85949-20.8469,9.45177-31.06569" style="fill:none;stroke:#333;stroke-linecap:round;stroke-linejoin:round"/><path d="M70.34837,426.52374c3.864-14.25322,4.54781-29.1544,7.10354-43.69925,2.44457-13.91234,6.59484-27.45936,10.73493-40.9645" style="fill:none;stroke:#333;stroke-linecap:round;stroke-linejoin:round"/><path d="M87.92762,373.89044a49.79529,49.79529,0,0,0,17.06894,33.0518" style="fill:none;stroke:#333;stroke-linecap:round;stroke-linejoin:round"/><path d="M28.16224,537.76236c4.41781-.72177,7.23076-5.19827,8.38579-9.52308s1.27285-8.96073,3.172-13.01429a22.72029,22.72029,0,0,1,8.56933-9.072c3.54364-2.28292,7.43354-3.96311,11.18668-5.88225A96.92534,96.92534,0,0,0,83.675,482.706" style="fill:none;stroke:#333;stroke-linecap:round;stroke-linejoin:round"/><path d="M90.502,477.46589a162.16128,162.16128,0,0,0,32.37415-40.5506" style="fill:none;stroke:#333;stroke-linecap:round;stroke-linejoin:round"/><path d="M127.78321,448.562a56.721,56.721,0,0,1-17.37251,24.31306" style="fill:none;stroke:#333;stroke-linecap:round;stroke-linejoin:round"/><path d="M163.53638,441.8382c1.18962,1.98117.38564,4.62338-1.08079,6.40937s-3.488,3.01739-5.17744,4.59412a16.82376,16.82376,0,0,0-5.03741,9.24356c-.76952,4.27613.15029,8.66079.10114,13.00533-.06716,5.93643-1.9376,11.68631-3.78912,17.327" style="fill:none;stroke:#333;stroke-linecap:round;stroke-linejoin:round"/><path d="M147.38928,498.11894c-2.54978,5.86926-5.11381,11.78148-6.52066,18.0241-1.31775,5.84724-1.59587,11.88015-2.69291,17.77278-1.99533,10.7177-6.67553,20.79219-12.48817,30.01518s-12.7594,17.66979-19.6858,26.08854" style="fill:none;stroke:#333;stroke-linecap:round;stroke-linejoin:round"/><path d="M47.22127,523.23076a28.30855,28.30855,0,0,1,15.57568-13.20807c4.46256-1.52885,9.51253-2.03715,13.04156-5.16727,2.83626-2.51567,4.15662-6.28263,6.28261-9.4216,4.13465-6.10469,11.17988-9.60611,18.2486-11.70271s14.45568-3.05765,21.41786-5.48471" style="fill:none;stroke:#333;stroke-linecap:round;stroke-linejoin:round"/><path d="M9.45226,441.30855c2.94467,3.12743,3.80484,7.69118,3.80816,11.98674s-.71444,8.59114-.35708,12.87181c.36857,4.415,1.876,8.74509,1.59571,13.16656-.29608,4.67128-2.54858,8.95425-4.50252,13.20756-3.83587,8.34985-6.71275,17.48685-5.70751,26.62049.85725,7.789,4.48149,15.06963,5.34335,22.85808.51005,4.60923.03782,9.28261.508,13.89608.51738,5.07658,2.16138,9.96114,3.79426,14.79571" style="fill:none;stroke:#333;stroke-linecap:round;stroke-linejoin:round"/><path d="M24.795,553.47222c-.41217,4.68368-1.04517,9.60515-3.86478,13.36767-3.76092,5.01862-10.76912,7.07667-13.83256,12.549a11.232,11.232,0,0,0,4.54217,15.41148" style="fill:none;stroke:#333;stroke-linecap:round;stroke-linejoin:round"/><path d="M7.14565,593.66995a9.99481,9.99481,0,0,0-6.64136,9.523,3.2141,3.2141,0,0,0,1.38506,2.8984c1.744.86994,4.15156-1.15374,5.65347.08835,1.02671.8491.63058,2.57636-.275,3.55363s-2.17552,1.56189-3.06472,2.55407c-1.63443,1.82374-1.62218,4.64169-.80434,6.95s2.30424,4.31131,3.41681,6.493c2.044,4.00807,2.78819,8.53254,3.506,12.97408a23.86661,23.86661,0,0,1,.41387,7.42662c-.23906,1.5432-.78055,3.03222-.94894,4.58472a5.15727,5.15727,0,0,0,1.2477,4.34172" style="fill:none;stroke:#333;stroke-linecap:round;stroke-linejoin:round"/><path d="M13.46855,660.44624A35.97785,35.97785,0,0,1,17.377,670.2377c4.62744-2.51641,9.317-5.07778,13.10548-8.73739s6.62985-8.61847,6.59107-13.88572" style="fill:none;stroke:#333;stroke-linecap:round;stroke-linejoin:round"/><path d="M40.1299,646.89027a84.84351,84.84351,0,0,1,40.1899-34.8288c20.194-8.361,42.65861-8.54534,64.42263-10.553,29.57068-2.72775,58.97234-9.10373,86.19848-20.96134" style="fill:none;stroke:#333;stroke-linecap:round;stroke-linejoin:round"/><path d="M235.08084,579.63237A157.69322,157.69322,0,0,0,280.676,540.616c3.37986-4.25767,6.55412-8.708,10.42192-12.52786s8.54606-7.02891,13.86309-8.16048c5.77214-1.22843,11.75691.07153,17.4707,1.54776" style="fill:none;stroke:#333;stroke-linecap:round;stroke-linejoin:round"/><path d="M326.31523,522.25059c3.00844.60606,6.07886-.36192,9.04711-1.14134s6.23774-1.35281,9.0124-.04162c4.8984,2.31477,6.12694,8.6985,10.61876,11.7277" style="fill:none;stroke:#333;stroke-linecap:round;stroke-linejoin:round"/><path d="M23.8341,538.76613c-3.45368.40671-7.2761,1.00967-9.44249,3.73-1.87859,2.35892-1.94123,5.7708-.9259,8.61029a26.80229,26.80229,0,0,0,4.85157,7.58117" style="fill:none;stroke:#333;stroke-linecap:round;stroke-linejoin:round"/><path d="M32.58831,548.254A37.14785,37.14785,0,0,1,50.95126,532.7554c4.404-1.70133,9.08456-2.53851,13.6511-3.7372a88.34609,88.34609,0,0,0,28.31073-13.14748" style="fill:none;stroke:#333;stroke-linecap:round;stroke-linejoin:round"/><path d="M102.51942,515.89712c2.51309-2.08883,6.00408-2.61011,9.26322-2.37178s6.432,1.1448,9.67155,1.57356,6.70343.33416,9.54306-1.283" style="fill:none;stroke:#333;stroke-linecap:round;stroke-linejoin:round"/><path d="M17.55562,596.88406a9.83441,9.83441,0,0,0,6.85566,1.13009,21.69018,21.69018,0,0,0,6.6052-2.53c5.26261-2.8508,10.07586-6.55327,15.6-8.85676s12.18919-3.01626,17.28112.12926" style="fill:none;stroke:#333;stroke-linecap:round;stroke-linejoin:round"/><path d="M70.63657,586.41355a3.99648,3.99648,0,0,0,3.71831.41382c1.23878-.39715,2.34516-1.12083,3.544-1.62588,4.64911-1.95857,9.98845-.4267,14.65139,1.4987s9.4277,4.28384,14.45991,3.92743c1.82037-.12893,4.10041-.41029,5.04188,1.153a3.357,3.357,0,0,1-.17828,3.16383,28.85657,28.85657,0,0,0-1.58566,2.89952,5.04887,5.04887,0,0,0,1.92762,5.77968" style="fill:none;stroke:#333;stroke-linecap:round;stroke-linejoin:round"/><path d="M16.08662,653.66756c13.30153-9.54545,21.90868-24.3367,34.38861-34.93376a71.11993,71.11993,0,0,1,49.64324-16.59524" style="fill:none;stroke:#333;stroke-linecap:round;stroke-linejoin:round"/><path d="M15.63232,634.96153c3.32038-10.36984,11.55107-18.71238,21.196-23.76558s20.62173-7.08266,31.49548-7.64855" style="fill:none;stroke:#333;stroke-linecap:round;stroke-linejoin:round"/><path d="M11.52614,617.49445a13.84472,13.84472,0,0,0,10.25117.87236" style="fill:none;stroke:#333;stroke-linecap:round;stroke-linejoin:round"/><path d="M106.92967,593.18365c-3.17362,2.65018-7.46357,3.542-11.59246,3.76s-8.29115-.14509-12.38976.39965-8.29056,2.16553-10.74955,5.48948" style="fill:none;stroke:#333;stroke-linecap:round;stroke-linejoin:round"/><path d="M14.11844,605.78432a58.011,58.011,0,0,0,23.294-3.65345" style="fill:none;stroke:#333;stroke-linecap:round;stroke-linejoin:round"/><path d="M18.58884,669.72355a55.35748,55.35748,0,0,0,41.66062,38.68487" style="fill:none;stroke:#333;stroke-linecap:round;stroke-linejoin:round"/><path d="M64.24923,709.78385a90.05517,90.05517,0,0,1,48.49258-2.47229" style="fill:none;stroke:#333;stroke-linecap:round;stroke-linejoin:round"/><path d="M112.64354,707.64811c13.73115-.21652,26.7225-5.85387,39.28834-11.39382,16.53418-7.28949,33.112-14.60117,48.688-23.76106s30.20409-20.25826,41.70738-34.19347" style="fill:none;stroke:#333;stroke-linecap:round;stroke-linejoin:round"/><path d="M313.742,539.50228c4.87412,1.61324,10.08366,1.82875,15.21385,2.0304,5.24272.20608,10.58618.40115,15.64027-1.00767,3.74089-1.04277,7.18293-2.92756,10.77771-4.397a51.24335,51.24335,0,0,1,21.26129-3.75872" style="fill:none;stroke:#333;stroke-linecap:round;stroke-linejoin:round"/><path d="M346.4671,539.92675c10.53275-8.85229,23.454-19.50213,33.98673-28.35442a53.22493,53.22493,0,0,1,8.96147-6.52443,17.86438,17.86438,0,0,1,10.68049-2.29482" style="fill:none;stroke:#333;stroke-linecap:round;stroke-linejoin:round"/><path d="M404.49122,502.62672c10.36787-.9014,21.25147-.72141,31.61933-1.62282a14.88171,14.88171,0,0,1,4.28009.04139,5.02333,5.02333,0,0,1,3.46294,2.30812" style="fill:none;stroke:#333;stroke-linecap:round;stroke-linejoin:round"/><path d="M443.76786,506.65395c-1.02008,3.705-3.99174,6.499-6.85883,9.05777-7.62209,6.80242-18.06355,16.09923-26.04331,22.47831" style="fill:none;stroke:#333;stroke-linecap:round;stroke-linejoin:round"/><path d="M378.77149,512.98458a7.54628,7.54628,0,0,0,6.12832,7.44984" style="fill:none;stroke:#333;stroke-linecap:round;stroke-linejoin:round"/><path d="M388.17866,520.299c17.10953-2.45547,32.29659-2.73938,49.40612-5.19485" style="fill:none;stroke:#333;stroke-linecap:round;stroke-linejoin:round"/><path d="M371.07748,532.36013q5.84754-5.16784,11.45344-10.6008" style="fill:none;stroke:#333;stroke-linecap:round;stroke-linejoin:round"/><path d="M386.60988,518.50638c3.25923-3.64619,7.88534-5.84962,12.63792-7.003a73.04189,73.04189,0,0,1,14.56612-1.52013l28.81077-1.06571" style="fill:none;stroke:#333;stroke-linecap:round;stroke-linejoin:round"/><path d="M395.26569,517.55264a1.34051,1.34051,0,0,1,.0948-1.12925,2.90979,2.90979,0,0,1,.775-.86756,7.26343,7.26343,0,0,1,3.99343-1.58351" style="fill:none;stroke:#333;stroke-linecap:round;stroke-linejoin:round"/><path d="M379.70065,532.46437l22.51027-5.47411c2.51651-.612,5.29956-1.19552,7.59.01337a6.42432,6.42432,0,0,1,3.15668,5.85734,9.63877,9.63877,0,0,1-2.86713,6.22721,19.85012,19.85012,0,0,1-5.77872,3.90771c-11.86066,5.71859-26.00207,5.82737-37.326,12.54641" style="fill:none;stroke:#333;stroke-linecap:round;stroke-linejoin:round"/><path d="M364.10055,556.53237a63.07488,63.07488,0,0,1-8.96424.7876,32.21662,32.21662,0,0,0-8.8677,1.39665,12.93866,12.93866,0,0,0-7.03558,5.32245" style="fill:none;stroke:#333;stroke-linecap:round;stroke-linejoin:round"/><path d="M313.47129,563.09891a28.61821,28.61821,0,0,0,16.45679-1.80263" style="fill:none;stroke:#333;stroke-linecap:round;stroke-linejoin:round"/><path d="M406.304,528.44238a27.55358,27.55358,0,0,0-5.22768,1.1057,5.41542,5.41542,0,0,0-1.80823.85575,4.04214,4.04214,0,0,0-1.34294,2.8714,11.99036,11.99036,0,0,0,.34742,3.23125" style="fill:none;stroke:#333;stroke-linecap:round;stroke-linejoin:round"/><path d="M398.84283,538.49669c-.13892.54981,1.33,1.89412,1.88073,2.02938a8.31663,8.31663,0,0,0,9.673-4.90779" style="fill:none;stroke:#333;stroke-linecap:round;stroke-linejoin:round"/><path d="M420.8101,529.89c2.64279-2.28561,7.56773.843,8.13766,2.65383,2.06252,5.44425-4.35778,10.94815-6.47587,12.31772" style="fill:none;stroke:#333;stroke-linecap:round;stroke-linejoin:round"/><path d="M349.50963,588.27159c4.59592-2.11341,7.93979-6.21956,12.147-9.02824,4.86846-3.25015,10.69564-4.64655,16.29562-6.35113s11.32844-3.92843,15.20848-8.31142" style="fill:none;stroke:#333;stroke-linecap:round;stroke-linejoin:round"/><path d="M394.98074,563.31227q12.45376-8.85193,25.46856-16.87692" style="fill:none;stroke:#333;stroke-linecap:round;stroke-linejoin:round"/><path d="M422.90612,530.97688a28.57053,28.57053,0,0,0-4.621,3.74408c-1.35542,1.21069-2.59775,2.773-2.64826,4.58969-.05719,2.05663,1.40847,3.8182,2.89653,5.239" style="fill:none;stroke:#333;stroke-linecap:round;stroke-linejoin:round"/><path d="M423.12586,530.89489a8.09692,8.09692,0,0,1,4.89049,4.11113" style="fill:none;stroke:#333;stroke-linecap:round;stroke-linejoin:round"/><path d="M244.09535,638.84262a34.031,34.031,0,0,0,21.86671-3.8884c2.82146-1.58371,5.45284-3.59068,8.53563-4.57311,3.54487-1.12969,7.362-.80578,11.07941-.65287a98.90634,98.90634,0,0,0,39.99207-6.32051,78.605,78.605,0,0,0,32.70958-23.57152" style="fill:none;stroke:#333;stroke-linecap:round;stroke-linejoin:round"/><path d="M400.28763,559.97317c-.08623,4.3928-.27787,9.10729-2.91372,12.62246a34.33927,34.33927,0,0,1-4.678,4.46487c-3.71446,3.3799-6.57119,7.82146-10.97994,10.22643-2.90569,1.58505-6.24448,2.14261-9.36685,3.24089a28.265,28.265,0,0,0-10.76518,6.85364" style="fill:none;stroke:#333;stroke-linecap:round;stroke-linejoin:round"/><path d="M318.53362,588.493a11.13512,11.13512,0,0,0,6.73868,1.2337" style="fill:none;stroke:#333;stroke-linecap:round;stroke-linejoin:round"/><path d="M329.0431,607.64623a4.41785,4.41785,0,0,0,4.21754.6921,12.32663,12.32663,0,0,0,3.82431-2.26626,14.71,14.71,0,0,1,3.76183-2.3823" style="fill:none;stroke:#333;stroke-linecap:round;stroke-linejoin:round"/><path d="M269.9479,632.81749c8.30592,27.288-6.07192,55.68127,2.51877,82.881" style="fill:none;stroke:#333;stroke-linecap:round;stroke-linejoin:round"/><path d="M273.70563,724.77027a115.27829,115.27829,0,0,1,.2801,28.34472" style="fill:none;stroke:#333;stroke-linecap:round;stroke-linejoin:round"/><path d="M286.70045,631.59631a144.23675,144.23675,0,0,0-2.371,75.98772c1.781,7.37062,4.14789,14.60621,5.49177,22.06892s1.62527,15.2952-.73022,22.50282" style="fill:none;stroke:#333;stroke-linecap:round;stroke-linejoin:round"/><path d="M28.16224,688.36889c1.18063,12.97314-.69415,27.9265-1.64507,40.91849s-.45484,26.64258,5.69668,38.12539" style="fill:none;stroke:#333;stroke-linecap:round;stroke-linejoin:round"/><path d="M34.29652,771.67884c83.81679,11.042,168.0207-21.69893,252.38747-16.274" style="fill:none;stroke:#333;stroke-linecap:round;stroke-linejoin:round"/><path d="M33.78579,772.14684a63.03,63.03,0,0,0-.85155,22.97128" style="fill:none;stroke:#333;stroke-linecap:round;stroke-linejoin:round"/><path d="M237.70253,488.9268a120.447,120.447,0,0,1-52.81834,16.884c-4.90544.37389-9.92617.46377-14.5497,2.14488s-8.88871,5.3643-9.66234,10.22277" style="fill:none;stroke:#333;stroke-linecap:round;stroke-linejoin:round"/><path d="M145.78251,545.40732a82.07135,82.07135,0,0,1,51.33555,35.04349" style="fill:none;stroke:#333;stroke-linecap:round;stroke-linejoin:round"/><path d="M264.73,486.44127a31.25407,31.25407,0,0,1,13.2234,14.25494" style="fill:none;stroke:#333;stroke-linecap:round;stroke-linejoin:round"/><path d="M176.5877,709.62656c30.17361,2.73108,55.851-26.49016,86.12565-25.32876" style="fill:none;stroke:#333;stroke-linecap:round;stroke-linejoin:round"/><path d="M261.62813,694.76308c-16.95966.46427-30.3836,13.62165-44.90621,22.39316A94.62326,94.62326,0,0,1,159.166,730.2375" style="fill:none;stroke:#333;stroke-linecap:round;stroke-linejoin:round"/><path d="M41.65036,701.61481c-2.27545,19.36385,7.468,39.63828,24.00925,49.95925" style="fill:none;stroke:#333;stroke-linecap:round;stroke-linejoin:round"/><path d="M251.17235,757.24346a3.12461,3.12461,0,0,0-2.84454,1.9017,8.77535,8.77535,0,0,0-.63782,3.5507c-.15406,4.44551-.08545,8.89539-.01683,13.343l.13861,8.98351a8.38575,8.38575,0,0,0,.5897,3.6012,2.86673,2.86673,0,0,0,2.95133,1.72029" style="fill:none;stroke:#333;stroke-linecap:round;stroke-linejoin:round"/><path d="M289.17182,758.23564l-.82,30.24471" style="fill:none;stroke:#333;stroke-linecap:round;stroke-linejoin:round"/><path d="M258.13424,770.48573a5.78251,5.78251,0,0,1-2.744.36324,3.26773,3.26773,0,0,0-2.56839.858,2.2301,2.2301,0,0,0,.01277,2.64469,3.65324,3.65324,0,0,0,2.4124,1.36546,10.84445,10.84445,0,0,0,2.83688-.02954" style="fill:none;stroke:#333;stroke-linecap:round;stroke-linejoin:round"/><path d="M254.51563,761.12489a2.53458,2.53458,0,0,0-1.31913,1.47659,6.82924,6.82924,0,0,0-.34931,1.99787,49.37585,49.37585,0,0,0,.01365,6.77394" style="fill:none;stroke:#333;stroke-linecap:round;stroke-linejoin:round"/><path d="M253.16873,775.23783q-.15194,4.42522-.1229,8.85418a6.20118,6.20118,0,0,0,.19738,1.82953,2.13429,2.13429,0,0,0,1.14607,1.37256" style="fill:none;stroke:#333;stroke-linecap:round;stroke-linejoin:round"/><path d="M261.0546,769.07872a7.65717,7.65717,0,0,1-.43717,9.89278" style="fill:none;stroke:#333;stroke-linecap:round;stroke-linejoin:round"/><path d="M169.77773,768.03547,151.6963,773.7977a12.08916,12.08916,0,0,0-5.22784,2.67523c-2.30355,2.386-2.24846,6.11921-2.04679,9.42957.14276,2.34337.39312,4.92752,2.10285,6.53642a9.38175,9.38175,0,0,0,3.68509,1.819c8.04474,2.5827,11.759,4.51586,20.759,3.82038" style="fill:none;stroke:#333;stroke-linecap:round;stroke-linejoin:round"/><path d="M287.14362,792.26458a517.79146,517.79146,0,0,0-64.9011,4.9224" style="fill:none;stroke:#333;stroke-linecap:round;stroke-linejoin:round"/><path d="M258.15,760.20758a77.19332,77.19332,0,0,1,26.8519.57189" style="fill:none;stroke:#333;stroke-linecap:round;stroke-linejoin:round"/><path d="M272.63335,788.0181a106.31026,106.31026,0,0,0,12.6678-.41375" style="fill:none;stroke:#333;stroke-linecap:round;stroke-linejoin:round"/><path d="M181.254,797.50471a115.9343,115.9343,0,0,1,33.65571-.89983" style="fill:none;stroke:#333;stroke-linecap:round;stroke-linejoin:round"/><path d="M225.62279,771.18841a3.26286,3.26286,0,0,0,.67185,6.48751" style="fill:none;stroke:#333;stroke-linecap:round;stroke-linejoin:round"/><path d="M192.80338,774.959a3.38921,3.38921,0,0,0-.75365,6.56176" style="fill:none;stroke:#333;stroke-linecap:round;stroke-linejoin:round"/><path d="M54.93542,800.6776a5.14686,5.14686,0,0,1-4.67752-2.285,12.6846,12.6846,0,0,1-1.89709-5.08624,51.43122,51.43122,0,0,1-.52537-16.69257" style="fill:none;stroke:#333;stroke-linecap:round;stroke-linejoin:round"/><path d="M56.40264,777.2767a93.81514,93.81514,0,0,0,3.37179,22.26983" style="fill:none;stroke:#333;stroke-linecap:round;stroke-linejoin:round"/><path d="M35.19075,799.01838a21.66019,21.66019,0,0,0,13.75354,2.74943" style="fill:none;stroke:#333;stroke-linecap:round;stroke-linejoin:round"/><path d="M171.71592,767.65618a132.92126,132.92126,0,0,1,1.753,28.46456" style="fill:none;stroke:#333;stroke-linecap:round;stroke-linejoin:round"/><path d="M174.13334,767.04067l5.10118-.0937,1.30477,18.97143a23.379,23.379,0,0,1-.13634,6.30175,7.88059,7.88059,0,0,1-3.28394,5.19961" style="fill:none;stroke:#333;stroke-linecap:round;stroke-linejoin:round"/><path d="M56.94535,802.92534c17.42516-5.62678,36.19528-5.09266,54.44741-3.6241s36.62537,3.81257,54.80412,1.61484" style="fill:none;stroke:#333;stroke-linecap:round;stroke-linejoin:round"/><path d="M34.69356,801.01156a141.10576,141.10576,0,0,0,1.95071,55.89275" style="fill:none;stroke:#333;stroke-linecap:round;stroke-linejoin:round"/><path d="M289.57232,795.57545c3.09967,18.24814-5.594,37.08989-1.9041,55.22789" style="fill:none;stroke:#333;stroke-linecap:round;stroke-linejoin:round"/><path d="M269.2172,801.79013c-.78188,12.76613-1.56336,25.58521-.50624,38.3315a31.76652,31.76652,0,0,0,2.28209,10.63429c1.51234,3.3156,4.22525,6.25222,7.73618,7.22881" style="fill:none;stroke:#333;stroke-linecap:round;stroke-linejoin:round"/><path d="M207.255,806.12811a42.84116,42.84116,0,0,1-33.38108,18.35818c-2.11472.07136-4.68376.24028-5.63568,2.13a5.59625,5.59625,0,0,0-.20662,3.29093L172.069,858.9096" style="fill:none;stroke:#333;stroke-linecap:round;stroke-linejoin:round"/><path d="M215.92356,807.09886a195.27253,195.27253,0,0,1-1.29553,54.34631" style="fill:none;stroke:#333;stroke-linecap:round;stroke-linejoin:round"/><path d="M112.05055,800.91832a152.71343,152.71343,0,0,0,3.32336,52.67733" style="fill:none;stroke:#333;stroke-linecap:round;stroke-linejoin:round"/><path d="M104.52269,800.61745a118.82507,118.82507,0,0,0,.05747,20.00041" style="fill:none;stroke:#333;stroke-linecap:round;stroke-linejoin:round"/><path d="M105.21984,827.11894a303.64384,303.64384,0,0,0,4.04092,32.13814" style="fill:none;stroke:#333;stroke-linecap:round;stroke-linejoin:round"/><path d="M33.10814,828.524a19.87437,19.87437,0,0,0,12.27917.4445l2.23137,31.979" style="fill:none;stroke:#333;stroke-linecap:round;stroke-linejoin:round"/><path d="M374.45628,131.44983c.47725,5.29385-3.268,10.06389-7.4603,13.33152-6.7382,5.252-14.94976,8.16028-22.64338,11.87449s-15.3314,8.68576-19.11522,16.34538" style="fill:none;stroke:#333;stroke-linecap:round;stroke-linejoin:round"/><path d="M321.98064,180.58522a89.19905,89.19905,0,0,0,.00325,92.38255" style="fill:none;stroke:#333;stroke-linecap:round;stroke-linejoin:round"/><path d="M323.1595,303.79018a39.0373,39.0373,0,0,0,2.1991-25.45426c5.08056,8.48467,7.44584,18.40946,7.86238,28.29016s-1.045,19.757-3.19554,29.40982" style="fill:none;stroke:#333;stroke-linecap:round;stroke-linejoin:round"/><path d="M323.60528,194.66329a41.5626,41.5626,0,0,1-3.63464,29.828c6.99578,2.48459,10.32947,10.59563,10.8742,17.9995s-.84312,14.9314.5183,22.22938c1.15419,6.1871,4.21339,11.82538,6.4175,17.72066a67.46563,67.46563,0,0,1-6.36557,59.17726" style="fill:none;stroke:#333;stroke-linecap:round;stroke-linejoin:round"/><path d="M317.56453,230.64142c4.72737,2.42084,7.21138,7.85612,7.87042,13.12624s-.152,10.60114-.2165,15.91192.75325,10.94407,4.12536,15.0474" style="fill:none;stroke:#333;stroke-linecap:round;stroke-linejoin:round"/><path d="M331.801,279.86071a59.14142,59.14142,0,0,1,2.022,49.19164" style="fill:none;stroke:#333;stroke-linecap:round;stroke-linejoin:round"/><path d="M316.76487,241.78784a58.02213,58.02213,0,0,0,8.20107,19.14787" style="fill:none;stroke:#333;stroke-linecap:round;stroke-linejoin:round"/><path d="M336.26973,165.32594c.511,6.02738-2.48056,11.81179-6.08711,16.66805s-7.93553,9.22384-10.8,14.55162c-4.54971,8.46219-4.965,18.65513-3.11526,28.08313" style="fill:none;stroke:#333;stroke-linecap:round;stroke-linejoin:round"/><path d="M319.53762,196.41937a23.65755,23.65755,0,0,1,.07951,16.85342" style="fill:none;stroke:#333;stroke-linecap:round;stroke-linejoin:round"/><path d="M369.44857,129.53719c-2.39949,8.0143-9.12078,14.02693-16.32355,18.28212s-15.13649,7.18942-22.23421,11.61761a62.3164,62.3164,0,0,0-28.66068,47.1686" style="fill:none;stroke:#333;stroke-linecap:round;stroke-linejoin:round"/><path d="M300.86878,209.96312c-3.42315,5.7707-4.22123,12.752-3.89628,19.45375s1.68744,13.311,2.26214,19.996c.38542,4.48322.36507,9.21884-1.74319,13.19414-2.9389,5.54153-9.16738,8.33884-13.84883,12.51374a28.16311,28.16311,0,0,0-3.77877,37.92626" style="fill:none;stroke:#333;stroke-linecap:round;stroke-linejoin:round"/><path d="M311.45812,259.33142a34.24523,34.24523,0,0,0-11.54179,14.69834c-2.47712,6.06865-3.14744,12.69335-4.53978,19.09851s-3.72433,12.95521-8.64523,17.28526c-3.2496,2.85943-7.39487,4.53552-10.69416,7.33747-5.2276,4.43958-9.31367,9.76085-5.56854,20.09963" style="fill:none;stroke:#333;stroke-linecap:round;stroke-linejoin:round"/><path d="M312.30556,264.66343a47.7193,47.7193,0,0,1-16.28689,43.00962" style="fill:none;stroke:#333;stroke-linecap:round;stroke-linejoin:round"/><path d="M319.43527,273.779c.02854,7.32384-.8013,14.752-3.54209,21.54369s-7.53793,12.92934-14.04068,16.29885a7.71737,7.71737,0,0,1-.134,7.5356,17.77809,17.77809,0,0,1-5.402,5.661A53.82868,53.82868,0,0,1,276.934,333.8304" style="fill:none;stroke:#333;stroke-linecap:round;stroke-linejoin:round"/><path d="M319.92521,311.21041a28.98862,28.98862,0,0,0-4.66948,26.64022" style="fill:none;stroke:#333;stroke-linecap:round;stroke-linejoin:round"/><path d="M332.20563,299.27722c.08491,2.67208-1.99744,4.83711-3.72056,6.88113a35.93986,35.93986,0,0,0-7.26457,31.35" style="fill:none;stroke:#333;stroke-linecap:round;stroke-linejoin:round"/><path d="M368.3504,111.4109c-12.62031-5.26714-27.5575-2.97714-39.411,3.84269s-20.91545,17.70954-27.847,29.498c-8.06545,13.71678-13.652,29.89781-10.38747,45.47165" style="fill:none;stroke:#333;stroke-linecap:round;stroke-linejoin:round"/><path d="M289.53737,191.45974c-4.64505,5.69731-6.11313,13.38521-6.1169,20.73612s1.29079,14.64809,1.46208,21.997-.91087,15.04464-5.13732,21.059" style="fill:none;stroke:#333;stroke-linecap:round;stroke-linejoin:round"/><path d="M266.436,292.90717a24.95377,24.95377,0,0,1,9.00673-35.65657c3.09337-1.66954,6.52959-2.6809,9.49017-4.576a18.78244,18.78244,0,0,0,8.49764-15.05689" style="fill:none;stroke:#333;stroke-linecap:round;stroke-linejoin:round"/><path d="M292.58528,232.44089c1.10143-2.97545.336-6.32206-.89089-9.248s-2.90864-5.67961-3.72365-8.74591c-1.63842-6.16424.49662-12.842,4.18819-18.04342s8.80127-9.19631,13.83522-13.11315" style="fill:none;stroke:#333;stroke-linecap:round;stroke-linejoin:round"/><path d="M300.60973,195.51729a14.19968,14.19968,0,0,0-3.4444,21.54839" style="fill:none;stroke:#333;stroke-linecap:round;stroke-linejoin:round"/><path d="M366.594,117.22028a54.68286,54.68286,0,0,0-59.24174,25.895" style="fill:none;stroke:#333;stroke-linecap:round;stroke-linejoin:round"/><path d="M305.60114,148.0381a59.4025,59.4025,0,0,0-9.69379,42.75146" style="fill:none;stroke:#333;stroke-linecap:round;stroke-linejoin:round"/><path d="M298.81483,181.36871c3.69405-.52747,6.3411-3.8233,8.07073-7.12975,4.47565-8.55592,5.422-18.61273,9.88836-27.17351,4.55974-8.73977,12.64237-15.39227,21.77847-19.09452s19.26283-4.58458,29.061-3.50246" style="fill:none;stroke:#333;stroke-linecap:round;stroke-linejoin:round"/><path d="M311.70129,150.99424a54.75829,54.75829,0,0,0-8.76259,18.778" style="fill:none;stroke:#333;stroke-linecap:round;stroke-linejoin:round"/><path d="M316.29754,165.02929a32.4715,32.4715,0,0,1,23.50419-17.44459A21.53919,21.53919,0,0,1,355.46144,131.904c3.79478-.89724,7.95437-.78562,11.27275-2.83349" style="fill:none;stroke:#333;stroke-linecap:round;stroke-linejoin:round"/><path d="M324.959,150.60847a35.56232,35.56232,0,0,1,20.00047-18.02118" style="fill:none;stroke:#333;stroke-linecap:round;stroke-linejoin:round"/><path d="M361.55165,134.5207a43.84246,43.84246,0,0,1-15.43284,11.05363" style="fill:none;stroke:#333;stroke-linecap:round;stroke-linejoin:round"/><path d="M305.7167,210.261a66.34948,66.34948,0,0,0-2.80775,30.86651c.72244,4.90872,2.002,9.83829,1.40645,14.764-.7823,6.47055-4.703,12.11408-8.959,17.05038s-9.0247,9.54962-12.10937,15.29112-4.21362,13.06729-.88944,18.67353" style="fill:none;stroke:#333;stroke-linecap:round;stroke-linejoin:round"/><path d="M287.95516,303.17843a11.82489,11.82489,0,0,1,2.30779-15.63361,13.71994,13.71994,0,0,0,3.10649-2.8126" style="fill:none;stroke:#333;stroke-linecap:round;stroke-linejoin:round"/><path d="M294.10841,248.1815c1.23908,3.936.03543,8.316-2.2255,11.76787s-5.479,6.14792-8.65666,8.7804-6.40992,5.30576-8.71337,8.7294a28.79889,28.79889,0,0,0-4.2778,11.98457c-1.27908,8.77554-1.39,12.57112,2.58769,20.49726.21543.42923.99144,6.80474,3.81332,7.32056" style="fill:none;stroke:#333;stroke-linecap:round;stroke-linejoin:round"/><path d="M280.48651,260.93571a4.75557,4.75557,0,0,1-1.05292,4.25409,17.05908,17.05908,0,0,1-3.46074,2.95132,25.907,25.907,0,0,0-7.4883,7.80991,12.95091,12.95091,0,0,0-1.33379,10.48811" style="fill:none;stroke:#333;stroke-linecap:round;stroke-linejoin:round"/><path d="M267.43969,298.28327a21.22087,21.22087,0,0,1-16.47424,23.31546" style="fill:none;stroke:#333;stroke-linecap:round;stroke-linejoin:round"/><path d="M295.358,313.39594c-2.33129,1.77433-5.18383,2.68953-7.95446,3.64178s-5.59717,2.01913-7.74528,4.01132-3.478,5.14131-2.52895,7.913" style="fill:none;stroke:#333;stroke-linecap:round;stroke-linejoin:round"/><path d="M307.01295,269.2785a45.03141,45.03141,0,0,1-9.55638,28.825" style="fill:none;stroke:#333;stroke-linecap:round;stroke-linejoin:round"/><path d="M372.28984,111.02711c13.41893-4.57323,28.54234-3.00577,41.39524,2.97632s23.50672,16.13283,31.36355,27.93336,13.03762,25.218,16.62609,38.93318c1.76425,6.74294,3.23955,13.771,7.20406,19.50362s11.247,9.86758,17.90288,7.79911" style="fill:none;stroke:#333;stroke-linecap:round;stroke-linejoin:round"/><path d="M377.84862,132.831c3.09937,4.4121,9.04019,5.48611,14.31551,6.60134,10.03533,2.12151,19.9125,5.75357,28.07911,11.95962s14.51046,15.18891,16.179,25.30942a27.85116,27.85116,0,0,1,24.08227,29.44717" style="fill:none;stroke:#333;stroke-linecap:round;stroke-linejoin:round"/><path d="M455.29408,160.37461a12.51567,12.51567,0,0,1,12.96929,7.754" style="fill:none;stroke:#333;stroke-linecap:round;stroke-linejoin:round"/><path d="M462.86411,209.35653a14.48847,14.48847,0,0,1,5.65374,20.56266c-1.12726,1.803-2.64052,3.34149-3.75568,5.152s-1.81293,4.06733-1.08656,6.0658c.77091,2.121,2.88635,3.38095,4.496,4.96275a12.77914,12.77914,0,0,1,3.55007,11.21145c-.76755,4.19882-3.66622,8.212-2.64782,12.35708.48457,1.9723,1.80181,3.6127,2.92734,5.30326a31.45228,31.45228,0,0,1-3.72233,39.4502" style="fill:none;stroke:#333;stroke-linecap:round;stroke-linejoin:round"/><path d="M437.223,182.36926c-.99341,8.94551.314,17.97127,1.70868,26.863s2.88482,17.86669,2.25571,26.84518-3.20831,18.41219-9.17706,25.81164" style="fill:none;stroke:#333;stroke-linecap:round;stroke-linejoin:round"/><path d="M428.57081,266.13611c-6.373,6.65144-10.29247,13.31851-15.30172,20.3762s-11.59261,13.7875-20.0967,15.395c-5.28114.99826-10.78756-.11985-15.73513-2.2195s-9.42749-5.1428-13.87126-8.166" style="fill:none;stroke:#333;stroke-linecap:round;stroke-linejoin:round"/><path d="M331.36314,264.72016c2.9657,5.84052,7.23319,10.00992,12.262,14.20728a145.48842,145.48842,0,0,0,16.14524,11.17447" style="fill:none;stroke:#333;stroke-linecap:round;stroke-linejoin:round"/><path d="M405.16357,208.31371A16.65879,16.65879,0,0,1,421.8502,202.127a30.50641,30.50641,0,0,0,3.7263.7744,4.64146,4.64146,0,0,0,3.56216-.99821l-.165.10739" style="fill:none;stroke:#333;stroke-linecap:round;stroke-linejoin:round"/><path d="M427.47576,204.80906a3.1363,3.1363,0,0,0,4.004-1.6822" style="fill:none;stroke:#333;stroke-linecap:round;stroke-linejoin:round"/><path d="M428.91647,207.5515a3.81467,3.81467,0,0,0,2.75453-.9334" style="fill:none;stroke:#333;stroke-linecap:round;stroke-linejoin:round"/><path d="M407.96927,211.359a11.35521,11.35521,0,0,1,5.94782-.30294,39.91192,39.91192,0,0,0,5.96195.843,12.32835,12.32835,0,0,0,8.14983-3.03793" style="fill:none;stroke:#333;stroke-linecap:round;stroke-linejoin:round"/><path d="M405.07847,208.29653a16.85644,16.85644,0,0,1,4.04652-6.1182,12.353,12.353,0,0,1,6.51092-3.26431" style="fill:none;stroke:#333;stroke-linecap:round;stroke-linejoin:round"/><path d="M418.07275,198.95616a7.90543,7.90543,0,0,1,4.2558.99032" style="fill:none;stroke:#333;stroke-linecap:round;stroke-linejoin:round"/><path d="M420.90207,202.13986c.65339.48707.76193.58326.99641,1.00684a6.67992,6.67992,0,0,1,.83213,2.355,4.89545,4.89545,0,1,1-7.92245-3.18917" style="fill:none;stroke:#333;stroke-linecap:round;stroke-linejoin:round"/><path d="M414.67175,202.56612a1.70785,1.70785,0,1,1-1.47538,3.04907" style="fill:none;stroke:#333;stroke-linecap:round;stroke-linejoin:round"/><path d="M416.94829,205.5286a1.08849,1.08849,0,1,0,1.78537.01878" style="fill:none;stroke:#333;stroke-linecap:round;stroke-linejoin:round"/><path d="M403.22257,193.02342a6.63944,6.63944,0,0,0,4.91852-.07176,36.95775,36.95775,0,0,0,4.49915-2.26792,21.46457,21.46457,0,0,1,7.39564-2.40461,14.58691,14.58691,0,0,1,7.65236,1.06228" style="fill:none;stroke:#333;stroke-linecap:round;stroke-linejoin:round"/><path d="M403.3808,194.45366a4.84237,4.84237,0,0,0,4.40161,1.46325,24.06434,24.06434,0,0,0,4.63655-1.38265,23.73894,23.73894,0,0,1,21.85318,3.83355,10.62927,10.62927,0,0,0-4.06683-7.69263" style="fill:none;stroke:#333;stroke-linecap:round;stroke-linejoin:round"/><path d="M399.65461,201.15741a22.31214,22.31214,0,0,0-3.00955,12.411,54.23969,54.23969,0,0,0,2.23677,12.72858" style="fill:none;stroke:#333;stroke-linecap:round;stroke-linejoin:round"/><path d="M399.79836,230.54413a4.10773,4.10773,0,0,1-.65566,3.80852,3.77161,3.77161,0,0,1-3.59456,1.33064,3.48834,3.48834,0,0,1-2.69069-2.68153" style="fill:none;stroke:#333;stroke-linecap:round;stroke-linejoin:round"/><path d="M392.7295,241.57915a8.23149,8.23149,0,0,0,8.44114-1.125,9.90473,9.90473,0,0,1,1.69423-1.32014,1.859,1.859,0,0,1,2.02592.08077" style="fill:none;stroke:#333;stroke-linecap:round;stroke-linejoin:round"/><path d="M405.03033,230.21313a10.71155,10.71155,0,0,1,2.19454,5.6494" style="fill:none;stroke:#333;stroke-linecap:round;stroke-linejoin:round"/><path d="M380.37531,229.92017a5.84191,5.84191,0,0,0-.50521,6.239" style="fill:none;stroke:#333;stroke-linecap:round;stroke-linejoin:round"/><path d="M386.22227,237.32624a4.53312,4.53312,0,0,1,2.81715,1.382" style="fill:none;stroke:#333;stroke-linecap:round;stroke-linejoin:round"/><path d="M337.86706,196.17381a43.788,43.788,0,0,1,8.24158-6.9574,20.84439,20.84439,0,0,1,10.15932-3.32925c3.94361-.12957,7.79069,1.16,11.44648,2.64455s7.29585,2.14346,11.12935,3.9723" style="fill:none;stroke:#333;stroke-linecap:round;stroke-linejoin:round"/><path d="M339.05606,196.64659a52.65816,52.65816,0,0,1,12.53214-4.5568,21.53062,21.53062,0,0,1,13.09876,1.19946" style="fill:none;stroke:#333;stroke-linecap:round;stroke-linejoin:round"/><path d="M366.73078,193.67483c3.94577.26161,8.08356-.08834,11.91627.88527a3.83417,3.83417,0,0,1,.19673-2.05608" style="fill:none;stroke:#333;stroke-linecap:round;stroke-linejoin:round"/><path d="M376.01518,209.50925a14.55659,14.55659,0,0,0-8.48729-7.73915,14.79931,14.79931,0,0,0-10.29441.24769,10.09262,10.09262,0,0,1-2.49436.75025,2.38319,2.38319,0,0,1-2.28368-.95938" style="fill:none;stroke:#333;stroke-linecap:round;stroke-linejoin:round"/><path d="M353.26217,204.6406a4.34193,4.34193,0,0,1-3.02378-.85347,2.12088,2.12088,0,0,1-.68032-.78362,1.06552,1.06552,0,0,1,.03486-1.00448" style="fill:none;stroke:#333;stroke-linecap:round;stroke-linejoin:round"/><path d="M351.06109,206.2265a3.47711,3.47711,0,0,1-3.61012-1.099" style="fill:none;stroke:#333;stroke-linecap:round;stroke-linejoin:round"/><path d="M352.63046,207.11127a13.15394,13.15394,0,0,0,8.62983,4.42895,16.20992,16.20992,0,0,0,6.35309-.52934" style="fill:none;stroke:#333;stroke-linecap:round;stroke-linejoin:round"/><path d="M370.424,210.39986a7.48143,7.48143,0,0,1,5.59121-.89061" style="fill:none;stroke:#333;stroke-linecap:round;stroke-linejoin:round"/><path d="M368.78374,202.56975a5.36341,5.36341,0,0,1-.25531,5.62046,5.4809,5.4809,0,0,1-5.184,2.22132,5.60391,5.60391,0,0,1-4.3582-3.60053,5.73285,5.73285,0,0,1,1.06868-5.56442" style="fill:none;stroke:#333;stroke-linecap:round;stroke-linejoin:round"/><path d="M360.3856,201.2193a2.10858,2.10858,0,0,1-1.46036,3.82436" style="fill:none;stroke:#333;stroke-linecap:round;stroke-linejoin:round"/><path d="M363.53763,204.3918a1.40746,1.40746,0,0,0-.40831,1.28749,1.28715,1.28715,0,0,0,.92688.96567,1.18654,1.18654,0,0,0,1.23777-.47362,1.10114,1.10114,0,0,0-.08559-1.30824" style="fill:none;stroke:#333;stroke-linecap:round;stroke-linejoin:round"/><path d="M353.85327,199.45023a22.49216,22.49216,0,0,1,8.07491-1.62309" style="fill:none;stroke:#333;stroke-linecap:round;stroke-linejoin:round"/><path d="M364.13343,198.183a12.13058,12.13058,0,0,1,9.10708,4.598" style="fill:none;stroke:#333;stroke-linecap:round;stroke-linejoin:round"/><path d="M370.972,262.60353c4.11581,1.55316,10.46578,3.32576,14.79845,3.20643" style="fill:none;stroke:#333;stroke-linecap:round;stroke-linejoin:round"/><path d="M389.17839,265.77757c7.00469,1.10036,15.01543.78974,21.1788-3.174" style="fill:none;stroke:#333;stroke-linecap:round;stroke-linejoin:round"/><path d="M417.52973,280.30771c-1.95816,4.947-1.36994,10.48877-.71642,15.7689.62268,5.03091,1.3543,10.268,4.21308,14.4543,2.60839,3.81964,6.69225,6.32483,10.652,8.71511l9.70324,5.85722" style="fill:none;stroke:#333;stroke-linecap:round;stroke-linejoin:round"/><path d="M328.46518,330.30719c.22367,8.32378.86281,16.72058,3.29981,24.68277s6.80791,15.52742,13.40855,20.60353a36.61186,36.61186,0,0,0,16.40734,6.86277,43.66709,43.66709,0,0,0,32.58858-7.86289" style="fill:none;stroke:#333;stroke-linecap:round;stroke-linejoin:round"/><path d="M443.11554,326.30764c-5.95833,11.87958-15.98882,21.13682-25.98406,29.89589q-9.80127,8.58908-19.83852,16.90379" style="fill:none;stroke:#333;stroke-linecap:round;stroke-linejoin:round"/><path d="M444.90115,327.37785l20.02736,4.31356a40.94161,40.94161,0,0,1,9.35548,2.81193,22.06388,22.06388,0,0,0,5.38255,1.70344,18.7758,18.7758,0,0,0,9.94156-1.34761" style="fill:none;stroke:#333;stroke-linecap:round;stroke-linejoin:round"/><path d="M467.38412,368.72316a22.68227,22.68227,0,0,1,6.68981-20.80689c3.89886-3.60435,9.02028-5.75672,12.64185-9.6396,2.00405-2.14865,3.58424-4.84858,6.21088-6.16528,3.5207-1.76488,7.82918-.47287,11.20554,1.55454s6.35843,4.772,10.03164,6.19249a7.151,7.151,0,0,1,3.03264,1.63734,4.17253,4.17253,0,0,1,.69842,3.48788,26.58772,26.58772,0,0,1-1.1533,3.49053,15.55549,15.55549,0,0,0,1.66346,13.23022" style="fill:none;stroke:#333;stroke-linecap:round;stroke-linejoin:round"/><path d="M511.73716,344.556a56.52054,56.52054,0,0,0-9.63305.63125,18.92912,18.92912,0,0,0-8.77626,3.79c-2.76161,2.29353-4.545,5.54668-5.96886,8.842-1.866,4.31866-3.22938,8.84878-5.25451,13.09515s-4.82284,8.29411-8.83218,10.75542" style="fill:none;stroke:#333;stroke-linecap:round;stroke-linejoin:round"/><path d="M468.47033,384.30255c-4.16464,2.742-5.98212,8.07936-5.88226,13.06465s1.79923,9.77767,3.3051,14.53113,2.84914,9.72474,2.21146,14.67007" style="fill:none;stroke:#333;stroke-linecap:round;stroke-linejoin:round"/><path d="M466.98327,436.91708a22.94213,22.94213,0,0,0,.0009,18.81674" style="fill:none;stroke:#333;stroke-linecap:round;stroke-linejoin:round"/><path d="M472.85525,342.59129c-5.21031,4.1574-10.323,8.59584-14.02351,14.14s-5.8871,12.37365-4.69765,18.93235" style="fill:none;stroke:#333;stroke-linecap:round;stroke-linejoin:round"/><path d="M454.99959,382.05675c1.92644,5.03221.19779,10.85486-2.96451,15.21767-2.513,3.467-5.9411,6.39235-7.41953,10.411a15.92646,15.92646,0,0,0-.38262,8.77778,38.19338,38.19338,0,0,0,3.08269,8.33086" style="fill:none;stroke:#333;stroke-linecap:round;stroke-linejoin:round"/><path d="M477.763,397.66532a17.67073,17.67073,0,0,1,3.52016-12.97086,28.77731,28.77731,0,0,1,10.71113-8.48289c3.1128-1.52191,6.61-2.81874,8.51676-5.71186,2.94838-4.47367.78-10.587,2.3513-15.70926" style="fill:none;stroke:#333;stroke-linecap:round;stroke-linejoin:round"/><path d="M518.24057,370.12692c-6.1135,3.28146-12.255,6.58071-17.79008,10.7647s-10.484,9.32468-13.56173,15.54325a41.07871,41.07871,0,0,0-3.8712,19.58036,71.748,71.748,0,0,0,3.83859,19.7267" style="fill:none;stroke:#333;stroke-linecap:round;stroke-linejoin:round"/><path d="M502.13529,454.00887c-6.36012-8.85681-11.385-17.32812-12.56808-28.16762a32.09118,32.09118,0,0,1,4.48657-20.05325c1.95447-3.19549,4.62343-6.14293,8.13669-7.44223,2.91072-1.07646,6.10472-.92741,9.2053-1.05937s6.39743-.6518,8.70012-2.73233" style="fill:none;stroke:#333;stroke-linecap:round;stroke-linejoin:round"/><path d="M523.90729,394.33744c4.216.11662,8.48581.24132,12.53674,1.41516s7.926,3.53314,10.042,7.18149c2.64389,4.55852,2.14533,10.21011,1.56611,15.44793" style="fill:none;stroke:#333;stroke-linecap:round;stroke-linejoin:round"/><path d="M499.80425,444.84393c.4265-4.45174-3.13956-8.18433-4.6408-12.39695-2.09409-5.87621.09494-12.67978,4.30992-17.27859s10.14652-7.27886,16.15831-8.94423c5.56318-1.54109,11.47088-2.3112,17.11328-1.09167s10.99559,4.65476,13.53917,9.83686" style="fill:none;stroke:#333;stroke-linecap:round;stroke-linejoin:round"/><path d="M517.2895,347.00287a84.69553,84.69553,0,0,0,12.8446,22.86281c3.78618,4.80245,8.10472,9.2097,11.37492,14.37733s5.45891,11.36491,4.36327,17.3814" style="fill:none;stroke:#333;stroke-linecap:round;stroke-linejoin:round"/><path d="M502.13529,454.00887c-3.42435.75434-5.36412-.70684-7.72286-3.30137s-4.08264-5.74688-6.65233-8.13265c-2.23172-2.072-5.06552-3.53179-6.85319-5.99715-1.81688-2.50565-2.30941-5.72574-2.4409-8.818s.03885-6.23078-.67231-9.243c-.50834-2.15318-1.45447-4.18007-2.02438-6.31779a9.099,9.099,0,0,1,.28519-6.47863" style="fill:none;stroke:#333;stroke-linecap:round;stroke-linejoin:round"/><path d="M502.13529,454.00887c4.57657,17.507,11.90148,34.811,18.47841,51.66878,1.76923,4.53483,3.95146,10.01735,7.19934,13.64311" style="fill:none;stroke:#333;stroke-linecap:round;stroke-linejoin:round"/><path d="M547.6315,419.34667a81.4364,81.4364,0,0,0,17.32785,41.64711,41.32467,41.32467,0,0,1,3.98333,5.39034,10.36014,10.36014,0,0,1,1.49372,6.41956" style="fill:none;stroke:#333;stroke-linecap:round;stroke-linejoin:round"/><path d="M589.51715,447.06656c-.68654,7.62542-5.689,14.20514-11.389,19.31681s-12.27062,9.22577-17.66577,14.65815a50.09626,50.09626,0,0,0-13.51059,25.43053" style="fill:none;stroke:#333;stroke-linecap:round;stroke-linejoin:round"/><path d="M589.9048,443.90935c2.24932-4.08889,1.36612-9.16662,2.588-13.67057a14.87249,14.87249,0,0,1,20.73084-9.542" style="fill:none;stroke:#333;stroke-linecap:round;stroke-linejoin:round"/><path d="M614.211,421.48074c4.51732-3.82888,10.47549-5.50706,16.33473-6.3648s11.82657-1.00358,17.61009-2.27535c6.755-1.4854,13.07363-4.464,19.61045-6.72382s13.59829-3.81086,20.35028-2.31168" style="fill:none;stroke:#333;stroke-linecap:round;stroke-linejoin:round"/><path d="M690.32749,403.99152a6.19243,6.19243,0,0,1,8.4454,4.97721c.42777,3.40569-2.0899,6.6137-5.143,8.18217s-6.56831,1.88623-9.96869,2.35435a44.09907,44.09907,0,0,0-11.79871,3.01066,20.99868,20.99868,0,0,0-9.35259,7.58536" style="fill:none;stroke:#333;stroke-linecap:round;stroke-linejoin:round"/><path d="M614.46782,425.52862a13.17532,13.17532,0,0,0,1.8624,9.3862,39.14456,39.14456,0,0,0,6.27469,7.49269l8.19452,8.27154" style="fill:none;stroke:#333;stroke-linecap:round;stroke-linejoin:round"/><path d="M612.8373,454.26605a41.84839,41.84839,0,0,0,3.62381,4.40546,2.69073,2.69073,0,0,0,2.4427,1.07647c.87371-.25106,1.2704-1.22745,1.67143-2.04328a9.81752,9.81752,0,0,1,6.69762-5.19716" style="fill:none;stroke:#333;stroke-linecap:round;stroke-linejoin:round"/><path d="M631.68974,452.97847a9.45243,9.45243,0,0,1-2.08888,9.9492,11.37453,11.37453,0,0,1-9.89678,3.0478,14.33989,14.33989,0,0,1-8.89065-5.60517c-1.95963-2.60075-3.14653-5.78557-5.47783-8.05913-1.66126-1.62012-3.79129-2.66277-5.63221-4.07542s-3.48071-3.43269-3.45118-5.753" style="fill:none;stroke:#333;stroke-linecap:round;stroke-linejoin:round"/><path d="M667.90994,429.5015c-5.28421-.70618-10.56473,1.82613-14.52061,5.4s-6.85982,8.131-9.96384,12.46536-6.57275,8.601-11.223,11.20808" style="fill:none;stroke:#333;stroke-linecap:round;stroke-linejoin:round"/><path d="M669.21056,430.34029c1.64056,4.11,3.22747,8.65712,1.84567,12.86119a17.66487,17.66487,0,0,1-2.92455,5.01756c-2.69467,3.55324-5.65545,6.911-8.1183,10.62869a27.58443,27.58443,0,0,0-4.87321,12.31554" style="fill:none;stroke:#333;stroke-linecap:round;stroke-linejoin:round"/><path d="M610.2441,459.56851c-3.797-.12767-9.52379,1.3029-11.18825,4.718a6.796,6.796,0,0,0,0,5.44155c.69045,1.22153,2.85227,2.174,4.1932,2.5872a19.9271,19.9271,0,0,1,3.98038,1.33684" style="fill:none;stroke:#333;stroke-linecap:round;stroke-linejoin:round"/><path d="M609.90874,474.41028a28.35148,28.35148,0,0,0,4.7174,4.65685,9.5319,9.5319,0,0,0,6.19789,1.98347c2.2093-.18125,4.18427-1.37211,6.16026-2.37674,5.15388-2.62032,11.06984-4.13731,16.75429-3.08107,1.94467.36134,3.83623,1.01666,5.80462,1.21094a7.00047,7.00047,0,0,0,5.54708-1.51434" style="fill:none;stroke:#333;stroke-linecap:round;stroke-linejoin:round"/><path d="M669.95789,446.71836c2.7295,2.5528,5.67211,5.58983,5.559,9.32535a11.54575,11.54575,0,0,1-2.10162,5.59676c-4.77475,7.65123-11.878,13.75906-15.89953,21.83165" style="fill:none;stroke:#333;stroke-linecap:round;stroke-linejoin:round"/><path d="M655.00182,485.757c-1.94775,3.13171-5.93148,4.38172-9.6178,4.49308s-7.36306-.66365-11.046-.47026c-3.45264.1813-7.00572,1.199-10.2916.1235a16.92683,16.92683,0,0,1-5.17391-3.23781l-9.57154-7.74643c-1.70151-1.37706-3.56821-3.11036-3.41976-5.29425l.10115.85231" style="fill:none;stroke:#333;stroke-linecap:round;stroke-linejoin:round"/><path d="M671.58363,464.5784c.32766,1.11216.37543.81095.70309,1.92311a17.56011,17.56011,0,0,1,1.04372,6.29233c-.27318,3.39441-2.48129,6.31835-4.90734,8.7081s-5.18659,4.49885-7.09465,7.31947c-1.36257,2.01425-2.27135,4.36576-3.99837,6.07783a11.49063,11.49063,0,0,1-8.83677,2.84709,33.45108,33.45108,0,0,1-9.22854-2.39058,35.35309,35.35309,0,0,0-9.21311-2.46272,4.88214,4.88214,0,0,1-2.25752-.49773,1.42357,1.42357,0,0,1-.5288-1.98944" style="fill:none;stroke:#333;stroke-linecap:round;stroke-linejoin:round"/><path d="M600.45823,465.421a10.03892,10.03892,0,0,1,8.4563,6.31623" style="fill:none;stroke:#333;stroke-linecap:round;stroke-linejoin:round"/><path d="M618.73689,486.9282c-4.17191,5.42812-5.66628,12.36921-7.83289,18.86344a87.27255,87.27255,0,0,1-16.11219,28.66365,56.4497,56.4497,0,0,1-16.1631,13.663c-6.26131,3.34186-13.53521,5.04728-20.547,3.94889s-13.123-4.83391-16.54091-11.054" style="fill:none;stroke:#333;stroke-linecap:round;stroke-linejoin:round"/><path d="M555.793,485.44664a62.09349,62.09349,0,0,0-13.85164,57.13128c2.40259,8.836,7.02472,18.32707,11.34139,26.40254" style="fill:none;stroke:#333;stroke-linecap:round;stroke-linejoin:round"/><path d="M563.09346,478.562c-8.8,1.89748-16.14163,5.496-23.19388,14.61893a58.13618,58.13618,0,0,0-8.33907,15.43206c-3.355,9.20368-6.27218,17.478-7.88582,27.14027" style="fill:none;stroke:#333;stroke-linecap:round;stroke-linejoin:round"/><path d="M523.34734,539.598a181.99561,181.99561,0,0,1-8.60572,36.87221" style="fill:none;stroke:#333;stroke-linecap:round;stroke-linejoin:round"/><path d="M519.897,575.99758c4.67824-12.82188,7.16182-27.59951,9.60595-41.02757s5.47579-26.9774,12.03782-38.94512" style="fill:none;stroke:#333;stroke-linecap:round;stroke-linejoin:round"/><path d="M543.28781,493.556a24.60944,24.60944,0,0,1,13.53862-8.77953" style="fill:none;stroke:#333;stroke-linecap:round;stroke-linejoin:round"/><path d="M541.00044,506.19262c-5.49454,13.70359-6.005,31.96451-2.36883,46.27384" style="fill:none;stroke:#333;stroke-linecap:round;stroke-linejoin:round"/><path d="M539.89958,554.62738a64.85639,64.85639,0,0,0,8.484,15.09457" style="fill:none;stroke:#333;stroke-linecap:round;stroke-linejoin:round"/><path d="M531.21555,527.46a146.23036,146.23036,0,0,1-.37611,46.49461" style="fill:none;stroke:#333;stroke-linecap:round;stroke-linejoin:round"/><path d="M536.707,540.98739c1.27725,9.90557-.04463,22.71033-2.73347,32.32916" style="fill:none;stroke:#333;stroke-linecap:round;stroke-linejoin:round"/><path d="M608.77782,511.61578a144.24318,144.24318,0,0,0,13.78173,46.67161" style="fill:none;stroke:#333;stroke-linecap:round;stroke-linejoin:round"/><path d="M605.974,518.61216a194.67824,194.67824,0,0,0,11.5967,41.11162" style="fill:none;stroke:#333;stroke-linecap:round;stroke-linejoin:round"/><path d="M592.40622,537.27974a199.79142,199.79142,0,0,1-2.27087,26.66337" style="fill:none;stroke:#333;stroke-linecap:round;stroke-linejoin:round"/><path d="M595.7992,563.62046c1.76889-10.17271,3.16751-22.72859,2.36234-33.02251" style="fill:none;stroke:#333;stroke-linecap:round;stroke-linejoin:round"/><path d="M603.78565,521.634a225.4058,225.4058,0,0,0-4.24491,41.86588" style="fill:none;stroke:#333;stroke-linecap:round;stroke-linejoin:round"/><path d="M608.3434,530.59795c1.5451,9.35625.4795,22.14478-.72968,31.55035" style="fill:none;stroke:#333;stroke-linecap:round;stroke-linejoin:round"/><path d="M486.42343,575.88134c13.36957,3.50059,27.513,1.371,41.07906-1.2674q25.77976-5.01379,51.0277-12.37648" style="fill:none;stroke:#333;stroke-linecap:round;stroke-linejoin:round"/><path d="M582.98547,563.35809c13.26427,1.9698,26.72177-1.24458,39.57408-5.07069s25.70544-8.32447,39.098-9.002c8.54222-.43217,17.07734.70744,25.62348,1.05338s17.35833-.15773,25.161-3.6613" style="fill:none;stroke:#333;stroke-linecap:round;stroke-linejoin:round"/><path d="M610.83291,505.08157a257.86585,257.86585,0,0,0,14.77121,52.26057" style="fill:none;stroke:#333;stroke-linecap:round;stroke-linejoin:round"/><path d="M643.13811,552.29094c12.42434-2.33769,14.848-7.07027,26.91384-10.84457,7.8832-2.46594,16.16856-4.22755,24.42837-4.19091-.3996,4.34828.4883,8.02424,1.90568,13.03594" style="fill:none;stroke:#333;stroke-linecap:round;stroke-linejoin:round"/><path d="M691.5998,539.73029c-8.0272,3.70877-14.04785,7.37891-28.88259,9.51011" style="fill:none;stroke:#333;stroke-linecap:round;stroke-linejoin:round"/><path d="M486.42343,575.88134c4.54052,46.8861,33.9934,88.04913,38.31163,134.95623" style="fill:none;stroke:#333;stroke-linecap:round;stroke-linejoin:round"/><path d="M524.6251,720.80607A226.13455,226.13455,0,0,1,518.32,758.451" style="fill:none;stroke:#333;stroke-linecap:round;stroke-linejoin:round"/><path d="M521.44478,762.76816a155.68092,155.68092,0,0,0,71.66384-1.73007c4.8003-1.26415,9.61306-2.77022,14.57656-2.838,5.2515-.07174,10.37271,1.47016,15.55869,2.3002a58.13348,58.13348,0,0,0,33.01017-4.44681" style="fill:none;stroke:#333;stroke-linecap:round;stroke-linejoin:round"/><path d="M660.9852,756.39064c15.57893-2.2867,31.44757-.74311,47.17486-1.50756s32.17522-4.259,43.86922-14.80327" style="fill:none;stroke:#333;stroke-linecap:round;stroke-linejoin:round"/><path d="M688.58642,555.80933c2.17616,20.93977,11.77439,40.34659,22.31835,58.5684s22.27857,35.96776,29.44175,55.76419c8.07331,22.31169,10.00833,46.31424,11.41339,70" style="fill:none;stroke:#333;stroke-linecap:round;stroke-linejoin:round"/><path d="M712.70089,550.46856c-3.40053,15.33581.93911,31.235,5.688,46.20822s10.22215,29.63884,8.663,45.26957" style="fill:none;stroke:#333;stroke-linecap:round;stroke-linejoin:round"/><path d="M704.58142,563.44234a46.25229,46.25229,0,0,0,8.53694,30.22929" style="fill:none;stroke:#333;stroke-linecap:round;stroke-linejoin:round"/><path d="M634.37748,566.81836a38.88978,38.88978,0,0,0,11.2714,21.94735" style="fill:none;stroke:#333;stroke-linecap:round;stroke-linejoin:round"/><path d="M653.66459,569.76751a150.24648,150.24648,0,0,1,9.59295,81.00509" style="fill:none;stroke:#333;stroke-linecap:round;stroke-linejoin:round"/><path d="M618.302,570.25625l11.863,55.21953" style="fill:none;stroke:#333;stroke-linecap:round;stroke-linejoin:round"/><path d="M638.16909,639.49393a323.45224,323.45224,0,0,1,18.85368,111.963" style="fill:none;stroke:#333;stroke-linecap:round;stroke-linejoin:round"/><path d="M563.3322,572.09878a118.92831,118.92831,0,0,1,10.95813,41.34849" style="fill:none;stroke:#333;stroke-linecap:round;stroke-linejoin:round"/><path d="M575.21807,623.33151c7.193,20.87621,7.83285,43.33281,9.53755,65.34756s4.78094,44.66654,16.084,63.63485" style="fill:none;stroke:#333;stroke-linecap:round;stroke-linejoin:round"/><path d="M487.17409,582.11366c-2.97476,1.19561-8.72856,2.45232-11.90841,2.04341.96353,25.32747,9.12158,49.73249,15.19781,74.33917s10.06005,50.78736,2.751,75.0564" style="fill:none;stroke:#333;stroke-linecap:round;stroke-linejoin:round"/><path d="M492.21862,737.19637a30.38628,30.38628,0,0,1-4.83333,13A54.44141,54.44141,0,0,1,500.703,751.457a33.72253,33.72253,0,0,1,16.26558,9.07273" style="fill:none;stroke:#333;stroke-linecap:round;stroke-linejoin:round"/><path d="M360.68848,316.35513a118.04215,118.04215,0,0,0,10.87161,34.795" style="fill:none;stroke:#333;stroke-linecap:round;stroke-linejoin:round"/><path d="M387.45159,366.32431a29.17632,29.17632,0,0,1,3.213-8.44452" style="fill:none;stroke:#333;stroke-linecap:round;stroke-linejoin:round"/><path d="M393.12673,365.07485c2.793-1.28166,3.397-4.96,5.39574-7.2942,2.29-2.67432,6.17806-3.3,9.69624-3.16424s7.0781.8474,10.5262.13561" style="fill:none;stroke:#333;stroke-linecap:round;stroke-linejoin:round"/><path d="M334.16508,360.44051a22.38624,22.38624,0,0,0,13.36321.96719c2.97057-.70814,5.86039-2.03687,8.91294-1.9491,4.93661.142,8.93254,3.87137,12.41876,7.36945" style="fill:none;stroke:#333;stroke-linecap:round;stroke-linejoin:round"/><path d="M311.37009,313.60877a36.53422,36.53422,0,0,1-12.93663,19.042c-6.21294,4.73054-15.87611,6.8172-23.68492,6.84985" style="fill:none;stroke:#333;stroke-linecap:round;stroke-linejoin:round"/><path d="M270.72509,340.09378a5.57087,5.57087,0,0,0-3.45413,5.23738c.07488,2.22867,1.36433,6.89843,9.69325,4.39176" style="fill:none;stroke:#333;stroke-linecap:round;stroke-linejoin:round"/><path d="M321.22346,339.79949c1.26347,2.59084-1.43689,5.58375-4.2644,6.14416s-5.73386-.31741-8.61586-.26355c-3.78916.07082-7.34828,1.73851-10.71365,3.48122s-6.76223,3.62507-10.51022,4.18658-8.00845-.50175-10.15512-3.625" style="fill:none;stroke:#333;stroke-linecap:round;stroke-linejoin:round"/><path d="M280.15834,345.23612a29.47689,29.47689,0,0,0,28.794-11.90283" style="fill:none;stroke:#333;stroke-linecap:round;stroke-linejoin:round"/><path d="M374.66286,116.12978c26.32887-11.03319,47.24275,6.63582,63.09539,23.13377,9.62791,10.01983,15.5276,22.92558,18.98662,36.384,2.50145,9.73266,3.31085,20.22176,8.7433,28.67577" style="fill:none;stroke:#333;stroke-linecap:round;stroke-linejoin:round"/><path d="M376.71339,130.28184c7.24344-1.34513,14.78311.3784,21.47623,3.4572s12.6884,7.45826,18.69117,11.72951c5.25185,3.73693,10.58782,7.4482,15.00944,12.13817s7.92058,10.50667,8.69532,16.9056" style="fill:none;stroke:#333;stroke-linecap:round;stroke-linejoin:round"/><path d="M455.24265,183.46427c-2.602-1.76764-4.19853-4.69642-5.16269-7.69063s-1.38919-6.13427-2.20874-9.17125a36.73454,36.73454,0,0,0-14.19174-20.27867c-3.545-2.49425-7.78952-4.64294-9.42448-8.65727" style="fill:none;stroke:#333;stroke-linecap:round;stroke-linejoin:round"/><path d="M374.76888,122.45509a43.60327,43.60327,0,0,1,32.49063,4.734c2.34125,1.38936,4.72611,3.26327,5.2351,5.93773" style="fill:none;stroke:#333;stroke-linecap:round;stroke-linejoin:round"/><path d="M416.10334,137.62981c1.57029,3.35156,4.68953,5.71164,7.91553,7.52593s6.69178,3.236,9.67194,5.43087a22.77663,22.77663,0,0,1,9.0031,15.53921" style="fill:none;stroke:#333;stroke-linecap:round;stroke-linejoin:round"/><path d="M387.42867,117.54415c6.51287.089,13.14447.46873,19.24412,2.75337s11.67347,6.75389,13.85685,12.89052" style="fill:none;stroke:#333;stroke-linecap:round;stroke-linejoin:round"/><path d="M441.14762,182.87822a17.7066,17.7066,0,0,1,13.90818,15.74426c.26244,3.95412-.77763,8.24749,1.20085,11.68108,1.64877,2.86141,5.05916,4.40692,6.57088,7.343,1.36848,2.6579.87964,5.90562-.17558,8.7027s-2.63542,5.39292-3.45437,8.26808a16.86665,16.86665,0,0,0,4.29905,16.29606" style="fill:none;stroke:#333;stroke-linecap:round;stroke-linejoin:round"/><path d="M441.55264,187.6479c-1.718,5.30791-.84724,11.11336.71893,16.468s3.8108,10.52273,4.87494,15.99931c2.07608,10.68452-.47171,21.66436-3.007,32.24934" style="fill:none;stroke:#333;stroke-linecap:round;stroke-linejoin:round"/><path d="M438.96269,248.27791a54.47458,54.47458,0,0,0-2.23876,12.03906,20.45294,20.45294,0,0,0,2.76788,11.76418c2.19756,3.46529,5.70093,5.95165,7.88117,9.42787a15.49138,15.49138,0,0,1,1.55057,12.93321c-.81907,2.459-2.2514,4.67463-3.11719,7.11761-1.55835,4.39718-1.17872,9.295.18058,13.7577a75.89569,75.89569,0,0,0,6.20146,13.62986" style="fill:none;stroke:#333;stroke-linecap:round;stroke-linejoin:round"/><path d="M423.60767,271.87465c-3.9081,8.18179-3.07934,19.37584,2.96418,26.13532" style="fill:none;stroke:#333;stroke-linecap:round;stroke-linejoin:round"/><path d="M429.21588,301.34965a20.27236,20.27236,0,0,1,4.61994,18.98665" style="fill:none;stroke:#333;stroke-linecap:round;stroke-linejoin:round"/><path d="M437.86681,318.23575c2.17631-5.04539,1.005-10.928-1.1172-15.99641s-5.151-9.756-6.82317-14.99009-1.7577-11.43,1.651-15.7397a18.84,18.84,0,0,0,4.01807,16.60275c1.89556,2.17508,4.271,3.877,6.292,5.93606s3.742,4.6603,3.79669,7.54494" style="fill:none;stroke:#333;stroke-linecap:round;stroke-linejoin:round"/><path d="M438.45873,280.95572a5.75558,5.75558,0,0,0,2.6398,4.09507c1.35253.99661,2.90391,1.71775,4.17161,2.82025a9.09894,9.09894,0,0,1,2.77885,8.93153" style="fill:none;stroke:#333;stroke-linecap:round;stroke-linejoin:round"/><path d="M455.06891,326.49965c-2.39992-3.22512-2.93035-7.53839-2.33148-11.5136s2.215-7.714,3.78334-11.4155,3.11994-7.47775,3.57714-11.47174a21.94429,21.94429,0,0,0-4.21893-15.51357c-2.306-3.06494-5.38066-5.465-7.86377-8.38837s-4.41693-6.71041-3.73371-10.48466" style="fill:none;stroke:#333;stroke-linecap:round;stroke-linejoin:round"/><path d="M448.84961,192.47636c-2.28039,3.892-2.03725,8.80574-.76082,13.13221s3.484,8.31753,5.02278,12.55779a42.9969,42.9969,0,0,1,1.75959,22.83347c-1.16045,5.89712-3.57712,11.7488-2.77759,17.70559,1.11858,8.3338,8.16076,14.55646,11.29752,22.358a25.23133,25.23133,0,0,1,.5649,17.09333c-1.88056,5.74752-5.88966,11.10981-5.37016,17.1348" style="fill:none;stroke:#333;stroke-linecap:round;stroke-linejoin:round"/><path d="M458.325,252.94753c-1.62485,3.45318-.67564,7.62245,1.184,10.95509s4.54324,6.12469,6.67948,9.28713a33.0251,33.0251,0,0,1-1.222,38.66352" style="fill:none;stroke:#333;stroke-linecap:round;stroke-linejoin:round"/><path d="M465.81547,316.38694a14.46828,14.46828,0,0,0-6.44781,9.965,5.451,5.451,0,0,0,.64292,3.99407" style="fill:none;stroke:#333;stroke-linecap:round;stroke-linejoin:round"/><path d="M379.78613,261.35054c1.55108.84185,3.46457.06893,4.98584-.82568s3.1643-1.95688,4.90332-1.65627a17.61806,17.61806,0,0,1,2.49839.92247,5.58144,5.58144,0,0,0,5.019-.80222" style="fill:none;stroke:#333;stroke-linecap:round;stroke-linejoin:round"/><path d="M400.82288,259.21444a3.33264,3.33264,0,0,1,2.21636,1.78015" style="fill:none;stroke:#333;stroke-linecap:round;stroke-linejoin:round"/><path d="M475.5391,592.773c-10.4036,1.36763-28.90381,4.60842-38.64828,3.65044,0,8.31457,23.8483,71.67247,22.62016,102.80615-.605,15.338-3.29067,30.939.28818,45.86591,1.7792,7.42085,5.10274,14.936,3.45284,22.38664l44.196-10.48875" style="fill:none;stroke:#333;stroke-linecap:round;stroke-linejoin:round"/><path d="M467.8462,602.14905c-7.24367,12.48366-4.1071,28.27031.47161,41.95783s10.489,27.80369,8.1221,42.04133" style="fill:none;stroke:#333;stroke-linecap:round;stroke-linejoin:round"/><path d="M442.54246,618.21419c.796,31.81739,4.00131,71.899,15.30083,101.65305" style="fill:none;stroke:#333;stroke-linecap:round;stroke-linejoin:round"/><path d="M487.09887,581.92554a452.20746,452.20746,0,0,0-61.5849,4.90736" style="fill:none;stroke:#333;stroke-linecap:round;stroke-linejoin:round"/><path d="M425.5711,591.57828c.41176,17.10727,2.89482,34.18353,5.852,51.0383,6.13875,34.98832,17.76309,69.868,13.99936,105.19083l14.09134,3.2779" style="fill:none;stroke:#333;stroke-linecap:round;stroke-linejoin:round"/><path d="M426.10783,602.60152c-2.28658,1.39658-5.29773,1.199-8.41007,1.574C428.203,656.18575,432.38271,712.48183,428.66529,765.412c10.74559,6.39007,23.88471,7.2686,36.36107,6.46786s24.90661-3.11034,37.39115-2.44948c12.00222.63533,23.71339,4.00252,35.69388,4.9642s25.02414-.91262,33.79356-9.13176" style="fill:none;stroke:#333;stroke-linecap:round;stroke-linejoin:round"/><path d="M425.51395,595.3703c-4.70856,1.357-10.79565,1.3233-15.5213,1.44934,5.06049,48.60065,8.3738,97.20131,13.43431,145.802,1.687-.411,4.67511-.0123,6.36208-.42332" style="fill:none;stroke:#333;stroke-linecap:round;stroke-linejoin:round"/><path d="M704.8781,657.56168a210.90616,210.90616,0,0,0,35.00353,79.23381" style="fill:none;stroke:#333;stroke-linecap:round;stroke-linejoin:round"/><path d="M511.51084,770.35918c8.91656,28.24133,6.80912,58.00386-.77443,88.89789" style="fill:none;stroke:#333;stroke-linecap:round;stroke-linejoin:round"/><path d="M500.82652,461.28768c-2.70166,21.0204-13.43488,39.98913-21.62331,59.53666s-14.05231,41.50414-6.45608,61.28932" style="fill:none;stroke:#333;stroke-linecap:round;stroke-linejoin:round"/><path d="M367.41438,396.44475a448.24009,448.24009,0,0,0-13.4443,84.09441" style="fill:none;stroke:#333;stroke-linecap:round;stroke-linejoin:round"/><path d="M353.63361,490.59906a152.05061,152.05061,0,0,0,3.95465,38.90771" style="fill:none;stroke:#333;stroke-linecap:round;stroke-linejoin:round"/><path d="M361.31725,601.24632c13.57378,49.60479-9.35665,102.27961-3.64377,153.38974" style="fill:none;stroke:#333;stroke-linecap:round;stroke-linejoin:round"/><path d="M359.28187,775.90679a417.32975,417.32975,0,0,0-12.78812,117.74557" style="fill:none;stroke:#333;stroke-linecap:round;stroke-linejoin:round"/><path d="M488.20581,447.65667a142.23153,142.23153,0,0,0-21.14759,73.45586" style="fill:none;stroke:#333;stroke-linecap:round;stroke-linejoin:round"/><path d="M466.203,525.5397a28.62071,28.62071,0,0,0-18.52573,13.90558c-2.8734,5.20818-4.03486,11.1885-6.55392,16.577s-7.0942,10.50724-13.02795,10.92219" style="fill:none;stroke:#333;stroke-linecap:round;stroke-linejoin:round"/><path d="M455.59478,582.11366a162.36812,162.36812,0,0,1,2.15983-28.98087" style="fill:none;stroke:#333;stroke-linecap:round;stroke-linejoin:round"/><path d="M463.91006,332.84862a130.64119,130.64119,0,0,0-34.77345,46.765" style="fill:none;stroke:#333;stroke-linecap:round;stroke-linejoin:round"/><path d="M425.18225,393.92442a251.216,251.216,0,0,0-19.04471,86.20888" style="fill:none;stroke:#333;stroke-linecap:round;stroke-linejoin:round"/><path d="M407.47523,556.64227a262.7552,262.7552,0,0,1,4.21,40.00415" style="fill:none;stroke:#333;stroke-linecap:round;stroke-linejoin:round"/><path d="M416.17129,718.16648a273.902,273.902,0,0,1-12.73534,119.04881" style="fill:none;stroke:#333;stroke-linecap:round;stroke-linejoin:round"/><path d="M313.23588,351.1033c-9.19224,12.89693-10.58206,29.82783-9.08428,45.59439s5.54454,31.273,5.99244,47.1042" style="fill:none;stroke:#333;stroke-linecap:round;stroke-linejoin:round"/><path d="M310.49625,454.35435c-3.85229,8.39071-7.74142,16.89715-9.33742,25.99094a54.55645,54.55645,0,0,0,7.956,38.81155" style="fill:none;stroke:#333;stroke-linecap:round;stroke-linejoin:round"/><path d="M323.65279,625.98382A191.13883,191.13883,0,0,1,311.575,751.852" style="fill:none;stroke:#333;stroke-linecap:round;stroke-linejoin:round"/><path d="M306.32281,768.6547a264.42373,264.42373,0,0,0-5.81489,72.96594" style="fill:none;stroke:#333;stroke-linecap:round;stroke-linejoin:round"/><path d="M281.51256,353.35617c-2.67922,3.61334-6.96585,5.57824-10.69676,8.09116a39.24106,39.24106,0,0,0-16.99317,30.14009" style="fill:none;stroke:#333;stroke-linecap:round;stroke-linejoin:round"/><path d="M313.28075,420.32731a78.4661,78.4661,0,0,1,38.772,45.81171" style="fill:none;stroke:#333;stroke-linecap:round;stroke-linejoin:round"/><path d="M366.28758,458.19409a83.95194,83.95194,0,0,1,25.2206-28.7591" style="fill:none;stroke:#333;stroke-linecap:round;stroke-linejoin:round"/><path d="M375.23993,454.82017a123.45625,123.45625,0,0,1,35.04671-31.95772" style="fill:none;stroke:#333;stroke-linecap:round;stroke-linejoin:round"/><path d="M23.599,462.87623a26.11709,26.11709,0,0,1,5.30525-29.08109c7.558-7.32825,19.5945-9.991,24.63965-19.23082" style="fill:none;stroke:#333;stroke-linecap:round;stroke-linejoin:round"/><path d="M18.62374,490.21774l-.90815-.41682a18.12085,18.12085,0,0,1,16.6292-5.79118" style="fill:none;stroke:#333;stroke-linecap:round;stroke-linejoin:round"/><path d="M290.94978,421.21611l-7.486,22.8407" style="fill:none;stroke:#333;stroke-linecap:round;stroke-linejoin:round"/><path d="M452.98541,438.67621a192.89677,192.89677,0,0,1,12.2103,41.42618" style="fill:none;stroke:#333;stroke-linecap:round;stroke-linejoin:round"/><path d="M472.51446,309.00994c-4.17,8.85626-3.13741,19.97438,6.76641,27.10877" style="fill:none;stroke:#333;stroke-linecap:round;stroke-linejoin:round"/><path d="M467.02434,332.16657a9.46967,9.46967,0,0,1-.20472-10.63361" style="fill:none;stroke:#333;stroke-linecap:round;stroke-linejoin:round"/><path d="M379.197,272.67027a23.11749,23.11749,0,0,0,9.8455,1.66457" style="fill:none;stroke:#333;stroke-linecap:round;stroke-linejoin:round"/><path d="M400.18254,273.46683a6.52227,6.52227,0,0,0,4.08006-2.85493" style="fill:none;stroke:#333;stroke-linecap:round;stroke-linejoin:round"/></g></svg>